<?xml version="1.0" standalone="no"?>
<!DOCTYPE svg PUBLIC "-//W3C//DTD SVG 20010904//EN"
 "http://www.w3.org/TR/2001/REC-SVG-20010904/DTD/svg10.dtd">
<svg version="1.0" xmlns="http://www.w3.org/2000/svg"
 width="540.000000pt" height="540.000000pt" viewBox="0 0 540.000000 540.000000"
 preserveAspectRatio="xMidYMid meet">
<metadata>
Created by potrace 1.11, written by Peter Selinger 2001-2013
</metadata>
<g transform="translate(0.000000,540.000000) scale(0.100000,-0.100000)"
fill="#000000" stroke="none">
<path d="M13 5373 c-8 -19 -12 -74 -10 -163 2 -133 2 -135 24 -133 15 2 21 -2
17 -11 -3 -7 2 -16 10 -19 9 -4 16 -2 16 4 0 6 9 8 21 4 18 -6 20 -4 14 14 -5
15 -2 21 9 21 9 0 16 -9 16 -20 0 -18 10 -25 33 -21 4 0 7 -3 7 -8 0 -12 -39
-21 -46 -10 -3 5 -23 6 -45 3 -26 -4 -39 -3 -39 5 0 6 -6 11 -14 11 -13 0 -13
-4 0 -27 21 -42 19 -83 -6 -83 -11 0 -20 -4 -20 -10 0 -5 6 -10 14 -10 7 0 16
-12 19 -27 5 -24 11 -28 42 -31 28 -2 36 1 32 12 -4 9 0 12 13 9 32 -8 31 -30
-1 -31 -51 -3 -59 -5 -59 -14 0 -5 7 -11 15 -14 8 -4 15 -17 15 -31 0 -13 4
-22 8 -19 4 2 14 1 21 -3 10 -7 8 -18 -9 -56 -12 -26 -18 -50 -13 -54 5 -3 10
-19 11 -36 2 -30 2 -30 -11 -6 -6 13 -16 22 -21 20 -5 -2 -13 7 -18 21 -7 20
-11 22 -19 10 -7 -12 -11 -13 -18 -2 -6 11 -10 8 -14 -10 -3 -12 -6 -295 -7
-628 l0 -605 70 -70 c61 -60 76 -85 71 -117 0 -4 5 -5 12 -2 7 2 32 0 57 -6
239 -52 282 -61 284 -58 23 51 67 124 78 126 12 2 115 -133 112 -147 -1 -3 -4
-15 -8 -26 -7 -23 -3 -24 269 -80 66 -14 131 -30 144 -36 13 -5 65 -19 115
-29 50 -10 140 -30 200 -44 148 -34 196 -41 196 -27 0 6 -12 13 -27 17 -59 13
-62 15 -69 50 -7 39 -1 52 18 36 7 -6 41 -14 76 -18 51 -5 62 -10 62 -25 0
-11 5 -19 10 -19 6 0 10 9 10 20 0 11 4 20 9 20 5 0 18 3 28 7 14 5 13 2 -4
-14 -13 -11 -23 -25 -23 -31 0 -6 -6 -13 -12 -15 -10 -4 -10 -6 -1 -6 9 -1 8
-8 -3 -28 -7 -16 -14 -34 -14 -41 0 -7 -4 -11 -9 -8 -15 10 -19 -18 -15 -102
3 -49 1 -82 -5 -82 -14 0 -24 19 -32 60 -6 31 -7 32 -8 8 -1 -27 -10 -35 -25
-21 -7 7 -9 8 -87 19 -45 6 -46 5 -52 -22 -3 -16 -1 -33 4 -38 5 -6 9 1 9 18
0 24 2 27 15 16 31 -26 15 -52 -80 -127 l-40 -31 -85 18 c-47 10 -104 23 -127
29 -40 11 -42 13 -32 39 5 15 14 37 21 49 8 17 8 26 -2 38 -9 11 -10 19 -3 26
23 23 1 60 -46 81 -25 10 -53 17 -63 15 -9 -3 -26 6 -39 19 -16 17 -32 23 -58
22 -20 -1 -44 2 -53 6 -16 7 -18 3 -16 -34 1 -34 6 -43 26 -51 29 -11 41 -4
24 13 -17 17 -15 28 7 28 14 0 21 -10 26 -36 9 -48 -4 -55 -74 -39 -31 7 -116
23 -190 36 -122 22 -135 26 -145 49 -6 14 -50 65 -97 113 l-85 88 -52 -85
c-29 -47 -56 -86 -60 -85 -4 0 -18 14 -31 31 -16 20 -20 32 -13 37 17 10 -6
78 -29 84 -24 7 -29 -1 -19 -28 5 -13 5 -25 1 -27 -5 -2 -18 -19 -28 -38 -17
-30 -25 -35 -56 -35 l-37 0 0 -218 0 -218 50 -51 c27 -28 50 -58 51 -67 0 -9
5 -3 10 13 5 19 5 34 -2 42 -5 6 -7 18 -3 27 3 8 0 18 -6 22 -6 4 -8 15 -5 26
4 11 2 19 -4 19 -6 0 -11 7 -11 15 0 10 10 15 30 15 31 0 43 19 13 21 -10 0
-13 3 -8 5 6 2 9 21 7 42 -3 28 1 42 17 56 19 18 21 18 50 -4 17 -12 31 -26
31 -31 0 -15 -17 -10 -24 6 -3 8 -17 15 -31 15 -23 0 -31 -11 -25 -35 2 -5 3
-17 4 -25 4 -38 30 -55 90 -59 36 -2 56 1 52 7 -3 5 -21 8 -41 5 -30 -3 -35 0
-41 23 -4 17 -2 29 7 35 18 11 32 11 25 0 -11 -17 6 -41 29 -41 16 0 30 -11
44 -36 21 -35 30 -63 11 -34 -7 11 -9 4 -9 -25 1 -22 4 -31 6 -21 4 15 7 16
13 5 5 -7 5 -21 -1 -30 -6 -12 -5 -19 5 -22 7 -3 16 -15 19 -26 3 -12 1 -19
-4 -15 -5 3 -9 -2 -9 -10 0 -9 -7 -16 -15 -16 -13 0 -20 -19 -16 -44 1 -4 -3
-14 -10 -22 -13 -16 -4 -34 17 -34 11 0 13 7 8 26 -7 25 -5 27 22 20 23 -6 27
-5 17 5 -7 7 -13 22 -13 33 1 21 1 21 15 2 8 -11 15 -38 15 -59 0 -39 0 -39
31 -33 17 3 41 6 53 6 20 0 20 1 -4 21 -17 14 -21 22 -12 26 16 6 6 71 -15 95
-10 11 -13 24 -8 35 4 10 8 38 8 62 0 47 -19 71 -56 71 -10 0 -15 5 -12 11 5
6 27 8 61 3 41 -5 63 -2 90 11 36 17 38 17 85 -6 35 -16 49 -28 50 -43 1 -26
5 -57 17 -119 10 -52 7 -55 -38 -32 -21 11 -36 12 -54 5 -14 -5 -39 -7 -56 -4
-29 6 -30 5 -30 -30 0 -30 5 -38 26 -46 33 -13 35 -13 33 3 -4 32 1 38 21 27
12 -6 20 -21 20 -36 0 -16 7 -27 23 -33 28 -11 39 -4 32 20 -4 13 -1 21 10 25
21 9 34 -5 37 -39 l2 -27 76 6 c41 4 80 10 85 15 22 17 263 84 272 75 2 -1
-22 -27 -52 -57 -30 -30 -55 -57 -55 -61 0 -14 211 -147 375 -235 37 -20 61
-63 36 -63 -6 0 -11 5 -11 10 0 6 -6 10 -12 10 -7 0 -33 11 -58 23 -99 52
-156 84 -182 101 -17 11 -28 14 -28 7 0 -7 -9 -9 -25 -5 -16 4 -25 2 -25 -5 0
-9 -5 -9 -20 -1 -24 13 -34 -3 -27 -47 4 -28 4 -28 6 4 1 26 4 30 21 26 19 -5
19 -7 5 -23 -9 -10 -13 -24 -9 -35 6 -14 4 -17 -8 -12 -19 7 -55 -28 -39 -38
8 -4 8 -12 1 -25 -13 -24 -13 -33 1 -24 8 5 8 1 0 -14 -8 -15 -7 -23 4 -32 12
-10 11 -14 -6 -31 -11 -11 -18 -27 -15 -34 14 -38 -76 -131 -99 -101 -6 7 -19
16 -30 20 -14 4 -25 21 -33 52 -9 33 -17 44 -27 41 -7 -3 -15 -2 -17 4 -2 5
-15 6 -33 0 -17 -4 -40 -4 -54 1 -27 9 -43 1 -22 -11 10 -7 11 -13 2 -30 -7
-11 -8 -21 -4 -21 4 0 -1 -6 -12 -13 -10 -8 -15 -19 -11 -26 5 -7 -3 -22 -19
-37 -28 -26 -45 -31 -45 -12 0 6 -3 9 -6 5 -3 -3 1 -20 10 -38 16 -32 13 -55
-6 -43 -8 5 -9 1 -5 -10 4 -10 7 -22 7 -28 0 -6 7 -7 16 -4 8 3 12 2 9 -4 -8
-12 88 -1 96 12 3 5 13 6 22 2 13 -5 14 -9 5 -24 -13 -21 4 -50 28 -50 8 0 14
-9 14 -20 0 -11 5 -20 10 -20 6 0 10 -9 10 -20 0 -11 7 -20 15 -20 8 0 15 -6
15 -14 0 -20 -23 -33 -28 -17 -3 8 -12 21 -21 30 -9 9 -23 31 -30 49 -16 38
-27 41 -35 7 -4 -14 -11 -25 -17 -25 -8 0 -8 -4 0 -14 8 -10 9 -16 1 -21 -15
-9 -30 3 -30 25 0 10 -4 22 -10 25 -15 10 -12 52 5 59 8 3 15 1 15 -4 0 -6 5
-10 10 -10 13 0 13 27 0 35 -6 4 -83 -42 -171 -101 l-161 -107 60 -38 c33 -21
91 -55 128 -75 38 -20 92 -50 121 -65 29 -16 67 -29 86 -29 47 0 157 38 187
65 79 71 156 78 280 28 82 -34 371 -119 435 -128 22 -4 49 -10 60 -15 27 -11
164 -37 245 -46 36 -3 70 -10 75 -15 6 -4 20 -8 30 -8 11 0 85 -6 165 -14 80
-9 197 -18 260 -22 183 -11 238 -48 249 -169 l6 -61 70 0 c83 1 300 14 334 21
16 3 22 10 18 22 -3 9 -19 64 -35 122 -17 58 -61 185 -99 282 -77 199 -65 188
-189 188 -43 0 -74 6 -96 18 -49 28 -86 32 -135 15 -44 -15 -45 -15 -72 11
l-28 27 -61 -24 c-71 -29 -114 -34 -197 -23 -62 9 -89 21 -79 37 3 5 2 19 -1
30 -5 15 -10 18 -18 10 -19 -19 -31 -12 -14 7 10 10 17 31 17 45 0 15 6 27 13
27 7 0 18 9 24 19 10 16 8 21 -15 33 -15 7 -28 18 -29 23 -1 6 -5 18 -9 29 -5
14 -3 17 7 14 8 -3 13 -13 13 -22 -1 -12 7 -16 32 -16 26 0 34 4 34 18 0 14
-2 14 -9 3 -6 -9 -16 -11 -27 -7 -18 7 -18 8 -1 20 23 17 22 24 -9 52 -33 32
-61 33 -56 3 2 -10 -6 -19 -18 -22 -17 -4 -20 0 -20 23 0 38 -14 45 -59 30
-29 -9 -36 -17 -38 -39 -2 -29 18 -46 61 -53 18 -3 19 -4 3 -20 -18 -17 -23
-38 -9 -38 4 0 13 5 20 12 9 9 12 9 12 1 0 -7 -5 -15 -11 -19 -8 -4 -7 -9 2
-15 11 -7 10 -9 -3 -9 -12 0 -18 -8 -18 -24 0 -13 -8 -34 -18 -47 -10 -13 -19
-34 -19 -46 -2 -35 -63 -118 -63 -85 0 4 7 20 15 36 16 30 11 52 -5 26 -8 -12
-10 -10 -10 8 0 17 -5 22 -17 20 -12 -2 -18 -12 -17 -28 1 -14 -7 -31 -18 -39
-18 -12 -18 -14 -3 -31 20 -22 8 -64 -15 -50 -13 9 -13 11 0 20 8 5 10 10 4
10 -5 0 -15 -5 -22 -12 -20 -20 -24 -2 -7 31 17 33 13 51 -11 51 -22 0 -17 18
16 50 34 34 52 73 44 95 -4 8 -1 15 6 15 6 0 9 4 6 9 -3 5 1 14 9 21 8 7 15 9
16 4 0 -5 2 -18 4 -29 2 -11 -1 -22 -6 -26 -15 -9 -16 -61 -1 -66 6 -3 12 1
12 9 0 7 9 19 20 26 26 16 26 48 0 62 -16 9 -18 14 -8 29 9 15 9 23 -3 37 -11
14 -11 18 -1 22 10 3 10 7 1 18 -6 8 -9 23 -6 34 4 14 -7 29 -38 55 -24 19
-48 35 -53 35 -5 0 -7 -19 -4 -45 3 -32 1 -45 -8 -45 -7 0 -10 6 -7 14 3 8 1
16 -5 18 -6 2 -11 18 -10 36 1 35 -14 41 -62 22 -22 -8 -26 -16 -26 -51 0 -32
3 -39 13 -31 8 7 22 5 47 -8 38 -21 34 -22 -42 -23 -28 0 -44 6 -63 27 -30 33
-31 36 -4 36 19 0 21 4 15 32 -3 18 -22 47 -41 65 -38 36 -55 41 -55 18 0 -8
-4 -15 -10 -15 -5 0 -10 9 -10 20 0 10 -9 24 -20 30 -25 13 -27 35 -2 25 155
-66 439 -145 637 -178 l70 -12 6 -45 6 -45 1 53 c1 28 5 52 10 52 10 0 15 -42
16 -133 1 -42 3 -77 6 -77 18 1 80 28 93 42 10 9 49 27 87 39 39 12 73 26 76
31 7 10 -35 47 -55 48 -9 0 -12 8 -9 25 3 14 1 25 -3 25 -5 0 -9 -6 -9 -12 -1
-7 -10 4 -21 25 -11 21 -30 42 -42 46 -20 8 -56 42 -70 66 -7 13 114 7 418
-20 l70 -6 -1 -69 c-1 -37 2 -74 7 -81 10 -16 12 -4 9 43 -1 16 4 28 10 28 9
0 10 -23 5 -85 -7 -81 -3 -98 21 -76 5 5 43 18 84 31 107 31 173 53 185 61 6
4 32 10 58 14 26 4 56 15 67 24 31 27 125 278 125 335 0 56 17 49 -155 60 -58
4 -123 11 -145 17 -22 5 -69 11 -103 14 -35 2 -78 11 -94 20 -17 8 -38 15 -46
15 -11 0 -14 10 -10 45 3 24 2 42 -3 39 -5 -3 -9 20 -9 50 0 30 -5 66 -11 80
-10 21 -15 23 -35 14 -32 -15 -328 6 -358 25 -12 8 -35 12 -53 10 -17 -3 -78
5 -135 17 -97 21 -129 29 -310 81 -44 12 -79 28 -89 41 -9 12 -21 18 -28 14
-6 -4 -28 -2 -47 4 -53 18 -30 31 111 64 66 16 147 37 179 47 33 11 67 19 76
19 9 0 36 13 58 30 45 32 58 36 64 19 5 -15 67 16 75 37 3 7 12 14 20 14 8 0
13 7 11 17 -4 21 -57 32 -168 36 -61 2 -78 6 -92 22 -22 25 -23 45 -3 45 9 0
34 9 56 19 21 11 57 22 79 26 40 7 50 18 29 30 -6 4 1 13 16 21 27 14 45 11
45 -6 0 -5 -9 -12 -21 -15 -31 -10 -17 -16 19 -9 21 4 32 12 32 24 0 22 26 44
41 34 8 -5 4 -13 -12 -26 l-24 -19 30 3 c26 3 30 6 27 31 -2 21 1 27 17 27 11
0 23 -4 26 -10 3 -5 1 -10 -4 -10 -6 0 -11 -7 -11 -15 0 -18 -1 -18 39 -4 36
13 34 1 32 192 -1 29 -5 46 -11 42 -5 -3 -10 -1 -10 5 0 6 -5 8 -11 5 -5 -4
-22 -4 -37 0 l-27 7 25 11 25 10 -25 5 c-29 5 -40 18 -40 48 0 25 38 45 71 37
15 -4 20 -3 15 5 -11 17 -72 15 -90 -4 -10 -9 -16 -11 -16 -4 0 8 -15 11 -44
9 -24 -2 -42 -1 -39 4 2 4 14 7 27 7 12 0 26 3 29 6 4 4 21 8 39 10 101 9 117
15 120 42 4 32 28 42 28 12 0 -15 5 -20 15 -17 22 9 29 -7 41 -92 5 -34 4 -42
-6 -36 -9 6 -11 4 -5 -5 12 -19 14 -89 3 -96 -6 -4 -14 0 -19 7 -7 12 -9 11
-9 -1 1 -20 25 -52 33 -43 4 3 7 1 7 -4 0 -19 -24 -21 -37 -4 -7 9 -13 11 -13
5 0 -5 9 -20 19 -31 13 -14 16 -24 9 -31 -6 -6 -6 -12 1 -16 14 -9 14 -26 1
-26 -5 0 -10 7 -10 15 0 18 -26 20 -27 3 -1 -7 -4 -26 -7 -43 -11 -54 2 -60
88 -41 68 16 77 20 83 44 11 49 43 57 43 11 l0 -30 83 3 c45 3 117 10 159 18
61 11 78 17 82 33 2 10 10 17 17 15 20 -7 22 -26 2 -31 -10 -3 17 -5 59 -6 61
-1 76 2 72 12 -9 26 23 41 61 29 19 -5 37 -7 40 -2 2 4 16 5 31 2 16 -3 21 -7
14 -12 -9 -6 -9 -9 0 -15 7 -4 18 2 26 14 8 12 24 21 35 21 22 0 26 -18 4 -26
-24 -10 -17 -26 8 -18 12 4 28 7 35 7 6 0 12 4 12 9 0 4 -4 8 -10 8 -5 0 -10
5 -10 11 0 6 9 8 20 4 14 -4 20 -2 20 8 0 21 20 27 275 91 47 12 50 15 57 52
4 21 7 65 7 97 1 57 19 108 43 124 7 4 18 17 24 27 20 36 32 28 39 -26 3 -29
10 -62 15 -73 11 -25 25 -115 21 -135 -1 -8 -9 -67 -16 -130 -7 -63 -14 -122
-16 -130 -3 -12 4 -14 31 -12 23 1 30 -1 21 -7 -7 -5 -10 -14 -7 -20 9 -14 26
3 44 42 15 34 15 40 2 32 -17 -11 -11 8 11 31 30 32 19 81 -26 123 -19 17 -35
38 -35 46 0 22 7 19 41 -20 35 -39 49 -44 49 -16 0 11 13 28 30 38 17 9 33 25
36 35 9 31 34 21 36 -14 3 -67 5 -84 17 -113 16 -38 16 -131 2 -215 -19 -107
-21 -112 -37 -106 -9 4 -18 -3 -23 -17 -21 -55 -331 -260 -364 -240 -4 3 -18
-4 -30 -15 -22 -20 -130 -72 -151 -72 -6 0 -24 -7 -41 -16 -16 -9 -54 -18 -82
-21 -29 -3 -53 -9 -53 -13 0 -4 7 -27 15 -50 10 -28 13 -63 10 -99 -32 -356
-32 -357 -4 -364 19 -5 20 -3 14 44 -8 54 2 129 16 129 5 0 9 -6 9 -13 0 -7 8
-22 18 -33 9 -11 24 -33 32 -49 9 -17 26 -34 38 -40 30 -13 37 -43 35 -143 -2
-46 2 -93 8 -104 8 -16 8 -23 -2 -30 -10 -7 -7 -8 11 -4 43 9 134 35 155 45
28 13 113 38 155 45 68 13 125 29 144 42 22 15 24 25 27 101 2 43 5 51 15 42
8 -6 11 -15 8 -20 -3 -5 2 -6 10 -3 11 4 16 0 16 -15 0 -12 -5 -21 -11 -21 -8
0 -9 -13 -5 -40 6 -36 3 -44 -20 -65 -15 -14 -31 -25 -35 -25 -5 0 -37 -14
-71 -31 -35 -17 -94 -41 -133 -54 -102 -34 -152 -54 -137 -55 17 0 184 57 242
82 108 49 134 59 146 54 8 -3 16 -1 19 4 3 5 12 7 20 3 20 -7 47 16 40 36 -3
10 4 20 20 28 24 11 25 10 25 -20 0 -18 4 -27 8 -21 11 17 49 26 57 14 12 -20
83 0 158 43 97 55 192 122 193 136 1 6 2 20 3 32 1 15 7 20 24 17 30 -4 77 27
77 51 0 12 9 21 24 25 14 3 37 16 53 29 15 13 36 26 45 30 24 8 81 100 101
162 15 45 15 51 1 62 -12 9 -13 16 -5 32 14 25 14 31 0 31 -13 0 -153 103
-194 142 -16 16 -47 33 -70 39 -46 13 -124 67 -125 88 0 8 7 23 17 33 9 11 11
18 5 18 -7 0 -12 11 -12 24 0 13 6 24 13 23 30 -1 47 4 47 13 0 6 -13 10 -28
10 -26 0 -28 3 -24 31 5 31 5 31 53 26 41 -5 50 -3 59 13 25 47 14 63 -64 86
-29 9 -55 38 -45 49 7 6 54 -3 239 -50 80 -20 163 -40 185 -45 22 -5 74 -17
115 -28 l75 -18 -3 -42 c-2 -25 1 -42 7 -42 6 0 11 5 11 10 0 6 7 10 15 10 9
0 18 7 21 15 4 10 13 13 26 9 13 -4 24 -1 29 7 5 8 9 114 9 235 l0 222 -27 10
c-16 6 -36 13 -46 16 -15 5 -17 12 -12 34 12 56 -59 70 -83 17 -8 -17 -20 -25
-36 -25 -33 0 -44 17 -44 73 -1 26 -3 51 -6 56 -3 4 -41 13 -86 21 -54 9 -79
18 -76 25 2 7 -11 30 -30 51 -25 29 -33 46 -30 66 5 31 -12 41 -51 32 -25 -7
-26 -6 -19 29 6 30 3 36 -13 42 -16 5 -19 13 -16 50 2 39 0 45 -17 45 -13 0
-24 -11 -31 -30 -6 -16 -14 -30 -17 -30 -3 0 -15 16 -28 34 -28 41 -26 82 3
79 53 -4 475 -64 515 -72 25 -6 69 -13 98 -16 l52 -7 0 150 c0 168 -6 186 -57
163 -50 -23 -41 11 23 84 l35 40 -2 152 c-1 124 -4 150 -15 146 -17 -6 -18 19
-2 35 8 8 13 66 15 177 l3 166 -25 23 c-31 29 -32 46 -2 46 l24 0 2 175 2 174
-530 0 c-334 0 -531 -3 -531 -9 0 -12 -47 -13 -54 -1 -9 14 -209 12 -218 -2
-6 -9 -8 -9 -8 0 0 9 -43 12 -161 12 l-160 1 -23 -27 c-21 -24 -26 -26 -40
-14 -12 10 -14 17 -5 27 10 12 -2 14 -66 14 -77 0 -77 0 -54 -19 20 -16 22
-21 10 -35 -13 -15 -16 -15 -37 5 -12 12 -20 27 -17 35 4 11 -39 13 -247 14
-221 0 -251 -2 -240 -15 10 -12 8 -20 -10 -42 l-21 -27 26 -13 c14 -8 25 -18
25 -24 0 -6 -7 -6 -20 1 -14 8 -20 8 -20 0 0 -6 -4 -8 -10 -5 -6 3 -10 1 -10
-5 0 -20 21 -55 48 -77 20 -17 23 -23 11 -23 -9 0 -24 -11 -33 -25 -20 -30
-20 -35 0 -35 12 0 15 -6 11 -21 -7 -27 14 -77 31 -71 20 6 41 -29 32 -53 -12
-32 4 -53 28 -38 10 6 25 8 32 3 9 -6 7 -11 -9 -19 -11 -7 -21 -19 -21 -29 0
-12 -4 -10 -13 8 -8 14 -20 24 -27 22 -7 -2 -16 1 -19 6 -3 5 -14 1 -24 -9
-18 -16 -17 -17 12 -24 56 -12 26 -35 -46 -35 -18 0 -33 -4 -33 -10 0 -5 6 -7
13 -5 8 4 12 -8 13 -41 1 -47 13 -64 47 -64 9 0 17 7 17 16 0 8 4 13 9 10 5
-3 7 -15 4 -26 -4 -14 0 -20 11 -20 19 0 21 -11 4 -28 -9 -9 -8 -12 5 -12 10
0 20 7 23 15 9 22 27 18 60 -13 16 -15 40 -32 54 -39 129 -59 148 -72 167
-115 7 -16 16 -28 21 -28 14 0 52 -36 52 -49 0 -6 -4 -11 -10 -11 -5 0 -10 -5
-10 -10 0 -7 19 -10 46 -9 31 2 48 -2 55 -12 12 -19 11 -29 -1 -29 -17 0 -11
-18 9 -25 19 -6 35 -38 32 -63 -1 -7 12 -15 29 -18 30 -7 36 -18 22 -42 -7
-10 -18 -8 -53 7 -57 26 -67 26 -124 -4 -26 -14 -49 -24 -52 -22 -2 3 -7 21
-10 41 -4 28 -2 36 10 36 11 0 13 -6 9 -22 -5 -19 -2 -19 41 10 27 19 59 32
79 33 l33 1 -33 8 c-21 5 -52 27 -81 58 -26 27 -56 51 -66 53 -11 3 -26 17
-33 32 -8 16 -20 31 -27 33 -7 3 -11 14 -8 25 4 14 1 18 -10 13 -10 -3 -22 4
-32 20 -10 14 -24 26 -32 26 -8 0 -12 4 -8 9 3 6 -5 19 -17 30 -26 25 -46 28
-27 4 12 -15 12 -16 -1 -8 -8 4 -25 17 -38 28 l-22 21 -56 -57 c-31 -32 -59
-55 -62 -52 -3 3 7 19 23 35 20 21 24 30 14 30 -17 0 -62 47 -65 67 -1 7 -12
24 -23 39 -12 15 -21 33 -21 40 0 7 -5 16 -10 19 -7 4 -9 -2 -4 -19 4 -16 2
-26 -5 -26 -6 0 -11 5 -11 11 0 5 -4 8 -9 4 -17 -10 -21 12 -6 25 8 7 15 19
15 26 0 15 -43 29 -59 20 -5 -4 -14 1 -19 9 -5 10 -15 13 -25 9 -16 -6 -15
-10 8 -40 25 -33 21 -50 -9 -38 -9 3 -16 2 -16 -4 0 -5 8 -13 17 -16 15 -6 14
-8 -4 -21 -12 -8 -28 -12 -37 -9 -12 4 -16 0 -16 -16 0 -13 -4 -19 -12 -14 -7
4 -8 3 -4 -4 4 -7 13 -12 21 -12 12 0 25 -19 31 -47 4 -22 -16 -14 -26 10 -5
12 -9 16 -9 8 -1 -8 -8 -11 -21 -8 -11 3 -18 2 -15 -3 6 -10 -20 -32 -28 -24
-12 12 -47 -8 -47 -27 0 -10 -5 -19 -11 -19 -5 0 -7 -4 -4 -10 9 -15 -4 -30
-20 -24 -22 9 -10 114 16 136 11 10 15 19 9 23 -17 10 -11 25 10 25 27 0 36
25 16 45 -18 18 -21 29 -6 20 6 -3 10 -1 10 4 0 6 -5 11 -12 11 -6 0 -2 10 10
23 12 13 19 27 15 31 -4 4 2 15 14 24 17 12 21 23 16 40 -5 23 -7 22 -44 -17
-22 -22 -39 -50 -39 -61 0 -17 -4 -20 -20 -15 -24 8 -27 -10 -5 -31 22 -23 19
-61 -6 -67 -16 -4 -19 -11 -14 -26 9 -30 -2 -43 -26 -31 -15 8 -19 7 -19 -4 0
-8 4 -17 9 -20 12 -8 11 -55 -2 -63 -6 -3 -7 -1 -3 5 8 13 -10 52 -24 52 -11
0 -2 -50 13 -69 10 -12 9 -14 -6 -8 -10 4 -23 7 -28 7 -5 0 -9 9 -9 19 0 11
-5 23 -10 26 -6 4 -8 11 -5 16 9 14 -11 11 -23 -4 -6 -7 -28 -14 -49 -15 -34
-2 -36 0 -20 12 22 17 22 24 0 28 -18 4 -63 -59 -63 -87 0 -7 -8 -12 -17 -10
-10 2 -20 4 -23 4 -3 1 0 5 7 9 8 5 6 14 -7 32 -19 24 -19 24 -13 3 3 -13 1
-23 -3 -23 -5 0 -14 10 -19 23 -9 20 -6 23 24 32 l33 10 -23 20 c-19 17 -22
18 -16 3 4 -10 2 -18 -3 -18 -6 0 -10 7 -10 17 0 14 -2 14 -20 -2 -11 -10 -20
-13 -20 -7 0 7 -11 12 -25 12 -14 0 -25 -5 -25 -11 0 -6 -7 -8 -17 -5 -9 4
-20 1 -24 -6 -11 -18 -40 20 -35 45 2 9 0 15 -5 12 -5 -3 -25 11 -45 32 -21
21 -42 37 -46 35 -5 -1 -7 2 -4 7 8 12 -22 81 -35 81 -20 0 -49 -21 -49 -35 0
-8 -10 -25 -21 -36 -15 -15 -22 -35 -23 -65 -1 -47 -26 -65 -26 -19 0 14 -4
25 -9 25 -17 0 -23 -40 -9 -57 12 -15 11 -15 -17 0 -56 31 -125 40 -167 22
-10 -4 -25 -4 -34 -1 -9 3 -12 2 -9 -5 4 -6 -2 -13 -14 -16 -12 -3 -21 -10
-21 -15 0 -11 -80 -1 -94 13 -5 4 -17 4 -28 -2 -12 -6 -25 -6 -38 1 -26 14
-26 30 1 30 12 0 17 4 14 11 -4 6 -13 8 -21 5 -8 -3 -14 -1 -14 4 0 10 34 15
83 11 16 -1 34 3 42 9 15 13 39 4 30 -11 -14 -22 13 -6 44 26 19 19 29 35 23
35 -6 0 -9 7 -6 15 4 8 15 15 25 15 10 0 19 4 19 8 0 5 9 18 20 29 18 20 18
22 2 28 -9 4 -54 9 -100 12 -66 5 -86 10 -96 25 -9 12 -31 21 -65 25 -67 8
-66 23 2 23 28 0 70 6 92 14 22 7 68 22 103 32 52 16 62 22 60 39 -3 19 -11
20 -143 20 l-139 0 -1 30 c0 17 4 33 10 37 5 4 3 10 -7 13 -13 5 -14 12 -6 42
12 43 5 50 -27 33 -20 -10 -28 -11 -37 -2 -9 9 -8 12 4 12 9 0 40 14 68 32 60
37 55 49 -24 56 l-54 4 -4 -53 c-2 -30 0 -57 5 -60 12 -9 -14 -48 -36 -55 -18
-6 -18 -7 -1 -25 9 -10 23 -19 31 -19 7 0 13 -4 13 -8 0 -18 -12 -20 -37 -7
-15 8 -30 12 -35 9 -4 -3 -8 0 -8 5 0 6 -7 11 -15 11 -21 0 -19 -9 7 -29 24
-20 17 -44 -10 -34 -14 5 -15 3 -5 -7 18 -20 -23 -76 -43 -59 -18 14 -23 10
-26 -22 -3 -24 2 -26 35 -14 12 5 17 2 17 -9 0 -9 -7 -16 -17 -16 -15 0 -15
-2 1 -19 10 -11 15 -25 11 -30 -10 -17 -25 -13 -25 7 0 22 -38 65 -50 57 -4
-3 -11 1 -13 7 -3 7 -5 -3 -5 -22 0 -19 2 -27 5 -17 6 21 8 21 31 1 14 -11 18
-26 15 -50 -2 -19 0 -34 5 -34 13 0 7 -40 -7 -49 -6 -4 -9 -15 -5 -24 5 -13 2
-16 -12 -11 -17 5 -17 4 1 -11 17 -14 18 -17 5 -25 -8 -5 -22 -10 -30 -10 -12
0 -12 2 -1 9 10 7 8 12 -9 24 -15 10 -20 22 -16 32 3 9 0 26 -8 37 -13 19 -15
19 -24 2 -8 -15 -13 -16 -25 -6 -15 13 -47 7 -47 -9 0 -5 10 -9 23 -9 12 0 29
-5 37 -10 11 -7 5 -10 -25 -11 -22 -1 -48 -2 -57 -1 -10 1 -18 -2 -19 -6 0 -4
-2 -21 -4 -39 -4 -26 1 -36 34 -65 21 -18 67 -49 102 -68 77 -43 167 -125 221
-201 38 -55 41 -57 70 -48 43 12 78 47 78 78 0 43 13 55 40 39 13 -7 33 -23
46 -36 21 -20 31 -22 74 -17 53 6 65 -5 30 -27 -27 -17 -25 -30 8 -59 26 -24
157 -89 179 -89 6 0 44 -14 84 -31 41 -17 85 -35 98 -41 17 -6 21 -12 14 -19
-8 -8 -17 -7 -32 1 -12 6 -31 8 -41 5 -12 -4 -20 -2 -20 4 0 6 -4 11 -10 11
-5 0 -10 -6 -10 -14 0 -7 -9 -16 -20 -19 -15 -4 -21 -1 -19 11 3 29 -1 42 -11
42 -5 0 -10 -14 -10 -31 0 -19 -4 -28 -11 -24 -6 4 -8 13 -5 21 3 7 0 19 -7
27 -7 7 -17 22 -23 32 -7 11 -20 19 -30 18 -10 -1 -22 4 -27 10 -6 9 -10 9
-14 -1 -9 -23 -103 -112 -118 -112 -8 0 -15 -4 -15 -10 0 -5 5 -10 10 -10 6 0
10 -22 10 -49 0 -41 7 -60 51 -127 28 -44 60 -89 71 -100 10 -12 18 -25 17
-30 -4 -21 2 -26 16 -14 19 16 37 2 72 -53 19 -30 22 -41 12 -53 -8 -10 -8
-14 0 -14 6 0 14 -18 17 -40 5 -28 25 -65 66 -118 69 -89 84 -105 75 -79 -7
19 3 23 19 7 14 -14 55 31 74 83 11 29 24 45 43 51 26 9 32 6 87 -54 69 -75
82 -113 51 -147 -23 -25 -28 -53 -8 -53 9 0 9 -2 0 -8 -6 -4 -11 -14 -11 -22
2 -31 -2 -53 -9 -46 -4 4 -8 32 -9 64 0 32 -9 72 -18 91 -16 30 -16 33 -2 28
10 -4 16 -1 16 7 0 9 -7 12 -20 9 -16 -4 -20 0 -20 21 0 14 -4 26 -9 26 -4 0
-6 -11 -3 -25 5 -28 -16 -42 -45 -30 -12 5 -14 9 -6 12 10 4 9 8 -1 19 -20 19
-26 18 -26 -5 0 -11 -9 -23 -20 -26 -15 -5 -20 -15 -20 -44 0 -20 -6 -43 -12
-50 -7 -6 -14 -33 -14 -59 -2 -78 -3 -82 -18 -82 -8 0 -20 13 -27 29 -10 22
-17 27 -26 20 -18 -16 -33 -1 -33 33 0 17 -13 49 -28 72 -16 23 -35 63 -42 89
-17 55 -40 71 -40 27 0 -17 -5 -30 -11 -30 -6 0 -9 7 -5 15 3 8 1 15 -4 15
-17 0 -11 22 13 44 20 19 23 28 18 68 -5 42 -8 45 -24 33 -11 -8 -18 -27 -19
-51 -1 -40 -2 -39 -29 31 l-12 30 -9 -32 c-5 -18 -11 -33 -14 -33 -4 0 -3 7 0
16 4 9 1 23 -5 30 -8 10 -8 18 0 27 8 11 5 19 -14 37 -14 13 -25 32 -25 42 0
25 -19 23 -30 -4 -8 -21 -9 -19 -10 12 -1 19 -5 46 -10 60 -6 22 -8 23 -15 8
-11 -26 -75 -25 -75 1 0 15 10 21 41 26 30 5 38 10 30 18 -6 6 -11 19 -11 29
0 14 -8 18 -36 18 -26 0 -37 5 -41 18 -2 10 -19 24 -36 30 -90 33 -237 183
-237 241 0 12 -4 29 -9 39 -5 9 -21 47 -36 83 -20 48 -43 82 -86 125 -32 33
-71 71 -86 86 -14 15 -29 26 -32 26 -3 -1 -42 2 -87 6 -54 5 -95 4 -125 -4
-64 -18 -205 -16 -356 5 -127 17 -133 19 -133 41 0 13 -9 28 -21 34 -11 7 -19
14 -16 17 3 2 22 -6 44 -20 22 -14 62 -27 97 -31 32 -3 68 -11 79 -18 24 -13
231 -4 286 12 19 5 63 11 97 12 35 2 60 6 56 9 -4 3 -34 27 -67 52 -33 25 -70
57 -83 71 -15 16 -29 22 -44 18 -15 -4 -19 -2 -14 7 9 13 -9 33 -59 67 -38 26
-143 60 -314 101 -64 16 -94 34 -79 48 4 4 210 -27 271 -41 18 -4 27 -2 27 6
0 8 9 10 25 6 33 -8 56 4 29 15 -11 5 -1 6 26 4 36 -4 40 -3 20 5 -20 7 -15 9
28 7 28 -1 52 1 52 5 0 4 11 19 25 34 22 24 24 29 10 36 -15 9 -58 15 -125 17
l-35 2 27 17 c28 16 38 42 18 42 -7 0 -7 6 0 19 16 30 12 39 -22 57 -24 12
-49 15 -104 12 -55 -4 -74 -2 -78 9 -7 18 -26 16 -26 -3 0 -14 -3 -14 -15 -4
-11 9 -12 16 -5 25 6 7 8 19 5 27 -6 14 70 37 188 58 60 11 220 60 215 66 -3
2 -85 -1 -184 -7 -233 -15 -247 -15 -251 -2 -3 7 -19 10 -45 7 -56 -7 -90 -43
-53 -58 8 -3 15 -1 15 4 0 6 7 10 15 10 22 0 20 -50 -2 -51 -15 0 -15 -2 2 -9
11 -5 16 -9 11 -9 -5 -1 -4 -7 2 -13 15 -18 10 -67 -5 -61 -7 3 -13 0 -13 -6
0 -6 -5 -11 -10 -11 -6 0 -20 -9 -32 -20 -22 -20 -18 -25 26 -32 11 -2 20 -11
22 -21 2 -15 0 -16 -13 -5 -23 19 -41 18 -46 -3 -9 -36 -23 -19 -20 24 2 23 5
60 6 82 2 22 6 45 9 51 16 26 -45 53 -71 31 -11 -9 -15 -9 -18 1 -3 6 -9 12
-15 12 -5 0 -6 -9 -3 -21 5 -14 2 -25 -6 -30 -11 -6 -11 -11 -2 -20 7 -7 9
-24 6 -43 -6 -32 -18 -46 -41 -46 -18 0 -28 30 -12 40 9 6 8 13 -5 34 -10 14
-23 26 -30 26 -23 0 8 50 35 57 14 3 30 10 37 15 16 12 12 68 -4 68 -7 0 -13
3 -13 8 0 4 20 7 44 8 29 1 53 8 71 22 l28 22 -67 0 c-39 0 -66 -4 -66 -10 0
-7 -6 -7 -19 0 -33 17 -55 11 -68 -17z m3061 1 c9 -22 8 -24 -9 -18 -8 4 -15
12 -15 20 0 19 16 18 24 -2z m43 -16 c-3 -8 -6 -5 -6 6 -1 11 2 17 5 13 3 -3
4 -12 1 -19z m108 12 c3 -5 1 -10 -4 -10 -6 0 -11 5 -11 10 0 6 2 10 4 10 3 0
8 -4 11 -10z m-55 -10 c0 -5 -4 -10 -10 -10 -5 0 -10 5 -10 10 0 6 5 10 10 10
6 0 10 -4 10 -10z m150 0 c0 -5 -5 -10 -11 -10 -5 0 -7 5 -4 10 3 6 8 10 11
10 2 0 4 -4 4 -10z m655 -22 c12 -2 21 -12 23 -25 4 -26 37 -27 56 -2 7 10 20
13 34 10 21 -6 22 -8 8 -26 -9 -11 -16 -29 -16 -39 0 -19 -1 -19 -22 1 -13 11
-39 23 -58 27 -33 6 -47 21 -67 76 -4 11 -2 11 8 -2 8 -9 23 -18 34 -20z m875
22 c0 -5 -8 -10 -17 -10 -15 0 -16 2 -3 10 19 12 20 12 20 0z m-1565 -20 c-3
-5 0 -10 6 -12 7 -2 10 -10 8 -16 -3 -9 -11 -6 -27 8 -24 22 -22 43 3 34 8 -4
13 -10 10 -14z m139 14 c24 -9 19 -30 -10 -53 -32 -25 -54 -27 -54 -5 0 8 5
12 10 9 15 -9 12 4 -5 21 -9 10 -15 11 -15 4 0 -6 -5 -10 -11 -8 -23 8 -8 23
28 29 21 3 39 7 40 8 1 0 8 -2 17 -5z m901 -4 c14 0 15 -17 2 -37 -8 -13 -67
-13 -67 -1 0 12 18 19 25 8 3 -5 10 -10 16 -10 15 0 10 22 -8 37 -17 14 -17
14 0 9 10 -3 25 -6 32 -6z m-1127 -25 c-6 -14 -15 -25 -19 -25 -5 0 -3 11 3
25 6 14 15 25 19 25 5 0 3 -11 -3 -25z m322 10 c19 -23 8 -25 -14 -4 -11 11
-15 19 -9 19 6 0 16 -7 23 -15z m250 5 c27 15 32 10 15 -13 -17 -24 -78 -15
-68 9 4 11 9 12 19 4 9 -8 19 -8 34 0z m1121 -5 c-1 -15 -24 -12 -29 3 -3 9 2
13 12 10 10 -1 17 -7 17 -13z m-1778 -33 c6 -29 5 -31 -8 -18 -16 15 -20 38
-8 49 8 9 9 8 16 -31z m733 12 c-30 -21 -42 -17 -15 5 13 11 26 17 29 14 3 -2
-4 -11 -14 -19z m813 23 c-2 -1 -13 -9 -24 -17 -19 -14 -19 -14 -6 3 7 9 18
17 24 17 6 0 8 -1 6 -3z m-759 -27 c0 -11 -4 -20 -10 -20 -5 0 -10 9 -10 20 0
11 5 20 10 20 6 0 10 -9 10 -20z m36 -5 c10 -26 -1 -35 -13 -10 -6 14 -7 25
-2 25 5 0 12 -7 15 -15z m904 -1 c0 -2 -12 -4 -27 -4 -21 0 -24 3 -14 9 13 8
41 5 41 -5z m-1572 -6 c21 -21 13 -27 -18 -15 -16 6 -30 15 -30 19 0 12 35 9
48 -4z m72 2 c0 -5 -8 -10 -17 -10 -15 0 -16 2 -3 10 19 12 20 12 20 0z m340
-10 c0 -5 -7 -10 -15 -10 -8 0 -15 5 -15 10 0 6 7 10 15 10 8 0 15 -4 15 -10z
m480 0 c0 -10 -32 -30 -49 -30 -6 0 -11 5 -11 10 0 6 7 10 15 10 8 0 15 5 15
10 0 6 7 10 15 10 8 0 15 -4 15 -10z m190 0 c0 -5 -2 -10 -4 -10 -3 0 -8 5
-11 10 -3 6 -1 10 4 10 6 0 11 -4 11 -10z m-1193 -25 c-4 -8 -11 -15 -17 -15
-6 0 -6 7 2 20 14 22 24 19 15 -5z m-2817 -16 c0 -5 -7 -9 -15 -9 -9 0 -12 6
-9 15 6 15 24 11 24 -6z m3220 11 c0 -5 -4 -10 -10 -10 -5 0 -10 5 -10 10 0 6
5 10 10 10 6 0 10 -4 10 -10z m-480 -36 c0 -22 -22 -12 -31 14 -8 20 -6 21 11
12 11 -6 20 -18 20 -26z m227 20 c-3 -3 -12 -4 -19 -1 -8 3 -5 6 6 6 11 1 17
-2 13 -5z m703 -4 c0 -5 -2 -10 -4 -10 -3 0 -8 5 -11 10 -3 6 -1 10 4 10 6 0
11 -4 11 -10z m-774 -64 c-18 -28 -36 -31 -36 -7 0 12 -4 21 -10 21 -15 0 -12
38 3 43 6 2 22 -6 34 -17 19 -18 20 -24 9 -40z m-3046 -2 c0 -20 -28 -23 -44
-5 -21 23 -20 39 2 43 17 4 41 -18 42 -38z m3125 26 c3 -5 1 -10 -4 -10 -6 0
-11 5 -11 10 0 6 2 10 4 10 3 0 8 -4 11 -10z m-21 -31 c-4 -6 -11 -6 -20 2
-21 17 -17 31 6 19 11 -6 18 -15 14 -21z m584 12 c3 -8 -1 -12 -9 -9 -7 2 -15
10 -17 17 -3 8 1 12 9 9 7 -2 15 -10 17 -17z m72 -5 c0 -7 -11 -16 -25 -19
-25 -4 -25 -4 -9 14 20 22 34 24 34 5z m-560 -36 c0 -5 -7 -10 -16 -10 -8 0
-12 5 -9 10 3 6 10 10 16 10 5 0 9 -4 9 -10z m-190 -15 c0 -8 -7 -15 -15 -15
-9 0 -18 -7 -21 -15 -5 -11 -11 -12 -25 -4 -23 12 -16 29 9 22 10 -2 24 3 31
11 17 20 21 20 21 1z m900 1 c0 -2 -7 -6 -15 -10 -8 -3 -15 -1 -15 4 0 6 7 10
15 10 8 0 15 -2 15 -4z m-260 -16 c0 -5 -2 -10 -4 -10 -3 0 -8 5 -11 10 -3 6
-1 10 4 10 6 0 11 -4 11 -10z m195 -10 c3 -5 1 -10 -4 -10 -6 0 -11 5 -11 10
0 6 2 10 4 10 3 0 8 -4 11 -10z m-3655 -30 c0 -4 -6 -13 -14 -19 -17 -14 -29
0 -20 22 5 15 34 13 34 -3z m2676 -10 c8 0 14 5 14 12 0 6 2 9 5 6 9 -9 -7
-38 -21 -38 -8 0 -14 2 -14 4 0 2 -2 10 -3 18 -2 7 -2 10 0 6 3 -5 11 -8 19
-8z m2199 10 c4 -6 10 -8 15 -5 11 7 40 -5 40 -17 0 -9 -60 -38 -80 -38 -11 0
-14 53 -3 63 9 10 21 9 28 -3z m-1405 -15 c7 -8 9 -15 6 -15 -4 0 -14 7 -22
15 -9 8 -11 15 -6 15 5 0 15 -7 22 -15z m-2542 -18 c-7 -14 -13 -17 -16 -9 -2
6 -10 12 -18 12 -28 0 -13 17 16 18 28 1 29 -1 18 -21z m1942 -38 c0 -5 -5 -9
-11 -9 -5 0 -7 5 -4 10 7 11 -27 6 -75 -12 -16 -6 -26 -6 -28 1 -2 6 -8 9 -13
5 -5 -3 -9 5 -9 16 0 16 4 20 16 16 9 -3 18 -6 20 -6 3 0 2 -4 -1 -10 -10 -17
4 -11 24 9 19 19 22 19 50 5 17 -9 31 -20 31 -25z m-2920 21 c0 -5 -5 -10 -11
-10 -5 0 -7 5 -4 10 3 6 8 10 11 10 2 0 4 -4 4 -10z m60 2 c0 -13 -12 -22 -22
-16 -10 6 -1 24 13 24 5 0 9 -4 9 -8z m-240 -16 c0 -2 -9 -6 -20 -9 -11 -3
-20 -1 -20 4 0 5 9 9 20 9 11 0 20 -2 20 -4z m3150 -10 c0 -3 -4 -8 -10 -11
-5 -3 -10 -1 -10 4 0 6 5 11 10 11 6 0 10 -2 10 -4z m-3170 -31 c0 -8 -4 -15
-10 -15 -5 0 -10 7 -10 15 0 8 5 15 10 15 6 0 10 -7 10 -15z m0 -51 c0 -8 -4
-14 -10 -14 -5 0 -10 4 -10 10 0 5 -8 7 -17 3 -15 -5 -14 -3 2 10 22 17 35 14
35 -9z m3080 16 c0 -5 -5 -10 -11 -10 -5 0 -7 5 -4 10 3 6 8 10 11 10 2 0 4
-4 4 -10z m-13 -31 c-14 -8 -22 -8 -30 0 -8 8 -3 11 19 11 25 -1 27 -2 11 -11z
m597 -78 c3 -4 -6 -6 -19 -3 -14 2 -25 6 -25 8 0 8 39 4 44 -5z m815 -18 c5
-16 21 -55 35 -87 14 -33 23 -62 21 -64 -4 -5 -53 49 -68 74 -4 8 -21 14 -36
14 -47 0 -91 12 -91 25 0 11 94 64 117 65 6 0 16 -12 22 -27z m-1599 7 c0 -5
-2 -10 -4 -10 -3 0 -8 5 -11 10 -3 6 -1 10 4 10 6 0 11 -4 11 -10z m-1090 -45
c-7 -9 -15 -13 -18 -10 -3 2 1 11 8 20 7 9 15 13 18 10 3 -2 -1 -11 -8 -20z
m-395 -5 c-3 -5 -11 -10 -16 -10 -6 0 -7 5 -4 10 3 6 11 10 16 10 6 0 7 -4 4
-10z m1505 0 c0 -5 -2 -10 -4 -10 -3 0 -8 5 -11 10 -3 6 -1 10 4 10 6 0 11 -4
11 -10z m-1078 -32 c-7 -7 -12 -8 -12 -2 0 14 12 26 19 19 2 -3 -1 -11 -7 -17z
m1378 -24 c0 -8 -5 -12 -10 -9 -6 4 -8 11 -5 16 9 14 15 11 15 -7z m-3170 -3
c0 -5 -7 -14 -15 -21 -16 -14 -18 -10 -9 14 6 17 24 22 24 7z m2775 -20 c-3
-6 -11 -11 -17 -11 -6 0 -6 6 2 15 14 17 26 13 15 -4z m-2195 5 c0 -3 -4 -8
-10 -11 -5 -3 -10 -1 -10 4 0 6 5 11 10 11 6 0 10 -2 10 -4z m1180 -11 c0 -8
-4 -15 -10 -15 -5 0 -10 7 -10 15 0 8 5 15 10 15 6 0 10 -7 10 -15z m143 -17
c3 -13 9 -33 12 -45 5 -15 3 -23 -4 -23 -6 0 -11 7 -11 15 0 19 -9 19 -32 -2
-23 -20 -23 -4 0 41 20 41 28 44 35 14z m3290 -36 c4 -18 -22 -72 -34 -72 -4
0 -5 18 -3 40 2 22 -1 40 -6 40 -6 0 -10 -8 -10 -19 0 -10 -6 -24 -14 -31 -8
-6 -12 -18 -9 -26 3 -8 0 -14 -6 -14 -6 0 -11 -7 -11 -15 0 -21 -9 -19 -31 8
-22 27 -24 47 -4 47 8 0 15 9 15 19 0 14 5 18 20 14 15 -4 20 0 20 14 0 11 3
22 6 26 10 10 63 -14 67 -31z m-3403 9 c5 -11 10 -22 10 -25 0 -12 -29 -5 -44
10 -14 13 -16 13 -16 1 0 -10 -7 -13 -20 -10 -25 7 -10 30 23 36 12 2 25 5 29
6 4 0 12 -8 18 -18z m930 12 c-1 -16 -37 -55 -43 -46 -4 6 3 20 14 31 21 23
29 27 29 15z m-700 -28 c0 -8 -7 -15 -15 -15 -9 0 -12 6 -9 15 4 8 10 15 15
15 5 0 9 -7 9 -15z m1367 -26 c-15 -11 -27 -27 -27 -34 0 -9 9 -5 25 10 32 33
44 31 52 -6 6 -30 8 -31 43 -25 32 5 40 2 53 -17 8 -12 18 -37 22 -55 l7 -33
49 6 c30 4 49 2 49 -3 0 -12 -93 -82 -109 -82 -6 0 -11 7 -11 15 0 8 -4 15
-10 15 -5 0 -10 3 -9 8 4 25 -16 52 -37 52 -13 0 -24 -5 -24 -11 0 -6 -7 -9
-15 -5 -18 6 -18 2 -5 -44 6 -21 6 -38 0 -44 -12 -12 -40 11 -40 33 0 9 -7 29
-15 45 -8 15 -15 49 -16 75 0 25 -3 40 -6 33 -7 -17 -23 -5 -23 17 0 19 60 85
68 76 3 -3 -7 -14 -21 -26z m-807 1 c0 -5 -2 -10 -4 -10 -3 0 -8 5 -11 10 -3
6 -1 10 4 10 6 0 11 -4 11 -10z m-283 -26 c-9 -9 -28 6 -21 18 4 6 10 6 17 -1
6 -6 8 -13 4 -17z m426 -5 c-17 -17 -37 -1 -22 17 8 10 15 12 23 4 7 -7 7 -13
-1 -21z m-2738 1 c-3 -5 -10 -10 -16 -10 -5 0 -9 5 -9 10 0 6 7 10 16 10 8 0
12 -4 9 -10z m2225 0 c0 -5 -5 -10 -11 -10 -5 0 -7 5 -4 10 3 6 8 10 11 10 2
0 4 -4 4 -10z m440 0 c0 -5 -4 -10 -10 -10 -5 0 -10 5 -10 10 0 6 5 10 10 10
6 0 10 -4 10 -10z m2575 -29 c-4 -3 -12 -6 -18 -6 -7 0 -11 -8 -11 -17 2 -19
-22 -32 -31 -18 -4 6 -1 10 4 10 6 0 11 7 11 15 0 16 30 36 43 28 5 -3 5 -8 2
-12z m-5259 -6 c4 -10 13 -13 24 -10 22 7 33 -8 25 -34 -5 -16 -11 -18 -35
-11 -17 5 -30 6 -30 2 0 -3 -5 -1 -11 5 -13 13 -4 63 12 63 5 0 12 -7 15 -15z
m2379 -37 c-20 -15 -46 -8 -54 15 -6 16 -4 23 7 28 18 7 62 -33 47 -43z m-215
22 c8 -5 11 -12 8 -16 -10 -9 -38 3 -38 16 0 12 10 13 30 0z m3004 -11 c-3 -5
-10 -7 -15 -3 -5 3 -7 10 -3 15 3 5 10 7 15 3 5 -3 7 -10 3 -15z m-926 -38
c-13 -22 -29 -23 -36 -3 -2 7 3 12 12 12 9 0 16 8 16 17 0 12 3 14 11 6 8 -8
7 -17 -3 -32z m66 23 c4 -9 1 -23 -5 -30 -9 -11 -8 -14 5 -14 9 0 16 7 16 15
0 8 3 15 6 15 3 0 45 -28 92 -62 48 -34 88 -62 89 -62 10 -5 10 -55 -1 -69
-20 -26 -84 -14 -88 16 -4 28 -20 31 -48 7 -27 -23 -37 -24 -73 -7 -19 8 -25
17 -21 30 3 11 0 17 -9 17 -20 0 -30 29 -17 45 9 11 7 12 -9 8 -27 -7 -26 3 2
30 13 12 22 28 19 36 -3 9 0 11 8 6 10 -6 12 -2 8 13 -7 26 16 31 26 6z m-264
-20 c0 -8 -4 -14 -9 -14 -6 0 -9 9 -8 19 1 22 17 18 17 -5z m76 -35 c-5 -67
-8 -74 -31 -66 -17 7 -21 62 -5 72 6 3 10 17 10 31 0 14 6 24 15 24 11 0 14
-12 11 -61z m-3291 14 c-10 -55 -25 -65 -25 -17 0 41 5 54 23 54 5 0 6 -16 2
-37z m2565 17 c0 -5 -5 -10 -11 -10 -5 0 -7 5 -4 10 3 6 8 10 11 10 2 0 4 -4
4 -10z m-3372 -23 c8 -10 5 -13 -16 -12 -20 0 -27 -5 -26 -17 1 -10 -4 -18
-12 -18 -9 0 -11 6 -7 18 16 40 42 53 61 29z m3852 1 c0 -7 -7 -22 -16 -33
-14 -18 -16 -18 -41 -3 -40 24 -39 36 4 41 21 2 41 4 46 5 4 1 7 -4 7 -10z
m-73 -113 c3 -9 -3 -25 -13 -37 -19 -20 -19 -21 2 -14 26 8 39 -6 53 -61 8
-29 17 -43 28 -43 13 0 14 -3 6 -11 -9 -9 -6 -17 13 -31 13 -11 24 -25 24 -31
0 -7 11 -34 25 -62 13 -27 25 -53 25 -57 0 -4 12 -33 26 -64 24 -53 25 -57 10
-89 -9 -18 -16 -48 -16 -67 0 -18 -3 -49 -6 -69 -6 -34 -9 -37 -40 -37 -19 0
-40 -5 -48 -11 -9 -8 -18 -5 -35 13 l-22 23 26 69 c24 62 25 73 14 109 -7 22
-23 51 -35 65 -20 22 -62 98 -77 140 -5 13 -6 13 -6 0 -1 -8 -6 -32 -11 -52
-11 -39 -22 -44 -158 -63 l-44 -6 7 78 c4 43 11 80 16 81 15 6 10 24 -16 58
-31 41 -32 54 0 54 22 0 24 3 15 25 -11 28 4 35 15 8 7 -16 9 -14 14 7 5 19
24 32 81 56 85 36 118 41 127 19z m866 -39 c3 -8 -5 -18 -19 -25 -24 -11 -29
-5 -18 23 8 20 30 21 37 2z m-4518 -6 c3 -5 -1 -10 -10 -10 -9 0 -13 5 -10 10
3 6 8 10 10 10 2 0 7 -4 10 -10z m2809 -40 c50 -54 55 -62 29 -58 -11 2 -19
-5 -21 -17 -6 -30 -18 -34 -119 -34 -106 -1 -105 -2 -38 74 l35 40 0 -37 c0
-41 11 -52 40 -43 16 5 20 15 20 46 0 36 -2 39 -27 39 -25 0 -26 0 -8 20 26
29 37 25 89 -30z m96 13 c-1 -24 -2 -26 -11 -10 -5 9 -7 22 -4 27 10 17 15 11
15 -17z m1681 17 c5 0 9 -9 9 -20 0 -29 -25 -25 -39 6 -10 23 -10 26 4 20 9
-3 21 -6 26 -6z m-2281 -137 c0 -7 -7 -13 -15 -13 -8 0 -15 5 -15 10 0 6 -18
10 -40 10 -39 0 -40 1 -40 34 0 38 -19 60 -44 50 -24 -9 -19 11 7 29 21 15 24
13 85 -46 34 -34 62 -67 62 -74z m657 100 c-3 -10 -5 -4 -5 12 0 17 2 24 5 18
2 -7 2 -21 0 -30z m1483 27 c0 -5 -7 -10 -15 -10 -8 0 -15 5 -15 10 0 6 7 10
15 10 8 0 15 -4 15 -10z m-1340 -10 c0 -5 -4 -10 -10 -10 -5 0 -10 5 -10 10 0
6 5 10 10 10 6 0 10 -4 10 -10z m-584 -17 c-1 -13 5 -17 22 -16 17 2 22 -2 22
-21 0 -13 7 -29 15 -36 8 -7 15 -18 15 -24 0 -11 -14 -12 -119 -7 -18 1 -5 73
15 84 8 4 14 15 14 22 0 8 4 15 9 15 5 0 8 -8 7 -17z m-388 -68 c-2 -22 -9
-28 -30 -31 -34 -3 -35 7 -6 46 25 34 41 27 36 -15z m285 11 c-3 -37 -22 -50
-45 -29 -17 15 -24 44 -13 54 2 3 17 5 32 4 25 0 28 -4 26 -29z m602 24 c-27
-12 -35 -12 -35 0 0 6 12 10 28 9 24 0 25 -1 7 -9z m93 -110 c-3 -30 -7 -35
-28 -35 -27 0 -33 23 -17 58 5 10 4 17 -3 17 -5 0 -10 4 -10 9 0 5 14 4 30 -2
27 -10 31 -16 28 -47z m-2899 16 c33 -12 36 -15 33 -49 -2 -21 1 -37 7 -37 11
0 31 -62 31 -99 0 -13 15 -43 34 -65 25 -31 33 -49 29 -68 -3 -14 0 -29 6 -33
8 -5 10 1 5 19 -4 16 -2 26 5 26 6 0 11 -3 11 -8 0 -4 10 -12 23 -17 15 -7 22
-19 22 -37 1 -16 7 -34 14 -40 11 -11 12 -8 7 13 -4 19 0 31 13 43 19 17 20
16 30 -21 6 -21 11 -42 11 -46 0 -5 10 -21 22 -35 12 -16 18 -19 15 -9 -8 21
2 77 14 77 5 0 9 -7 9 -15 0 -8 9 -24 19 -34 18 -18 23 -18 63 -7 24 7 79 14
123 15 74 2 82 0 102 -22 16 -19 18 -28 10 -37 -9 -9 -9 -11 1 -8 8 2 19 -6
25 -17 7 -11 16 -23 21 -26 5 -4 5 -12 2 -18 -4 -6 -3 -11 2 -11 5 0 17 -12
27 -26 14 -22 15 -28 4 -35 -11 -7 -11 -9 2 -9 14 0 99 -112 99 -130 0 -4 -19
-3 -42 1 -24 5 -59 12 -78 15 -19 3 -42 8 -50 11 -8 4 -21 5 -29 4 -8 -2 -24
2 -35 8 -18 8 -66 19 -171 36 -16 3 -39 7 -50 10 -11 2 -42 10 -70 16 -27 6
-53 17 -57 23 -5 7 -8 8 -8 0 0 -6 -13 -9 -31 -6 -22 3 -37 -2 -54 -18 -20
-19 -27 -21 -40 -10 -8 7 -15 23 -15 36 0 42 -64 40 -88 -3 -11 -19 -32 -9
-32 16 0 21 -19 41 -38 41 -8 0 -25 -9 -39 -20 -29 -22 -43 -25 -43 -9 0 6
-25 40 -56 75 -31 36 -55 66 -53 67 2 2 26 11 52 21 27 10 51 24 54 32 3 8 12
14 19 14 8 0 31 7 52 16 33 14 35 17 20 28 -16 12 -16 14 3 33 19 19 19 20 2
42 -10 12 -29 24 -43 26 -14 2 -46 9 -72 15 -40 10 -50 9 -63 -3 -8 -9 -15
-20 -15 -26 0 -6 -4 -11 -10 -11 -6 0 -5 10 2 25 8 18 8 28 -1 39 -12 14 -10
44 6 99 2 10 1 17 -4 16 -4 -1 -28 -1 -53 0 -39 1 -42 3 -25 13 11 6 42 12 70
13 75 3 87 11 79 51 -3 18 -3 38 1 43 8 14 111 5 164 -13z m1781 4 c-20 -13
-40 -13 -40 0 0 6 12 10 28 10 21 0 24 -2 12 -10z m850 -85 c26 -31 10 -40
-82 -48 -44 -4 -54 -11 -39 -29 7 -7 17 -21 24 -31 7 -10 21 -19 32 -21 11 -2
21 -10 23 -19 3 -14 -5 -17 -37 -17 -33 0 -40 4 -43 22 -5 35 -28 34 -28 -1 0
-17 4 -31 9 -31 4 0 6 -11 3 -25 -6 -35 -22 -31 -22 5 0 30 -1 30 -54 30 l-54
0 -4 56 c-1 30 1 62 5 70 8 14 -4 18 -41 17 -7 -1 -11 4 -9 11 2 7 53 13 148
16 79 3 147 7 150 8 4 1 12 -5 19 -13z m-481 -42 c0 -20 -13 -39 -42 -63 l-40
-35 6 30 c3 18 0 37 -8 49 -12 16 -23 17 -119 11 -59 -4 -109 -11 -112 -16 -7
-12 -104 -12 -104 0 0 4 26 11 58 15 31 4 73 9 92 12 34 4 201 19 248 22 18 2
22 -3 21 -25z m-2512 1 c3 -8 -1 -23 -10 -31 -14 -14 -19 -14 -51 6 -20 13
-36 27 -36 32 0 5 20 9 45 9 32 0 47 -5 52 -16z m1800 -16 c-3 -7 -5 -2 -5 12
0 14 2 19 5 13 2 -7 2 -19 0 -25z m887 6 c17 -17 22 -44 7 -44 -8 0 -41 43
-41 55 0 10 19 5 34 -11z m651 -59 c14 -13 25 -29 25 -35 0 -6 -12 1 -26 15
-31 31 -54 27 -101 -17 -35 -34 -53 -30 -53 12 0 27 2 28 34 23 25 -4 40 -1
51 11 23 22 42 20 70 -9z m-920 -75 c-3 -5 -12 -7 -20 -3 -21 7 -19 13 6 13
11 0 18 -4 14 -10z m-85 -4 c0 -2 -7 -6 -15 -10 -8 -3 -15 -1 -15 4 0 6 7 10
15 10 8 0 15 -2 15 -4z m1109 -43 c2 -2 1 -6 -2 -10 -8 -8 -57 36 -57 50 0 6
12 0 28 -14 15 -13 29 -25 31 -26z m-1030 -65 l-2 -43 -6 35 c-7 33 -5 50 5
50 2 0 3 -19 3 -42z m842 -69 c16 -11 29 -28 29 -36 0 -9 17 -32 38 -52 38
-36 38 -37 31 -96 -19 -162 -19 -161 -50 -159 -16 1 -32 -2 -35 -7 -3 -5 -13
-9 -22 -9 -16 1 -16 2 1 14 9 7 17 17 17 21 0 8 -81 2 -120 -9 -55 -16 -55
-15 -55 55 0 76 -13 99 -59 100 -32 1 -30 3 31 24 13 4 19 13 16 21 -3 9 1 14
12 14 19 0 31 12 72 75 23 35 50 64 61 65 2 0 17 -9 33 -21z m-1806 1 c3 -5 1
-10 -4 -10 -6 0 -11 5 -11 10 0 6 2 10 4 10 3 0 8 -4 11 -10z m1160 -39 c-2
-2 -11 3 -19 12 -8 8 -12 17 -9 21 3 3 12 -2 19 -12 7 -9 11 -19 9 -21z m-318
7 c-3 -8 -6 -5 -6 6 -1 11 2 17 5 13 3 -3 4 -12 1 -19z m-2245 -28 c-18 -16
-37 -30 -44 -30 -7 1 5 16 27 35 48 41 61 37 17 -5z m2088 20 c0 -5 -2 -10 -4
-10 -3 0 -8 5 -11 10 -3 6 -1 10 4 10 6 0 11 -4 11 -10z m910 -3 c0 -8 -13
-13 -35 -14 -21 -1 -35 4 -35 11 0 7 16 13 35 14 24 2 35 -2 35 -11z m-570
-11 c0 -16 -18 -31 -27 -22 -8 8 5 36 17 36 5 0 10 -6 10 -14z m-63 -18 c-3
-8 -6 -5 -6 6 -1 11 2 17 5 13 3 -3 4 -12 1 -19z m451 2 c-11 -17 -38 -28 -38
-16 0 18 15 36 31 36 17 0 18 -3 7 -20z m-718 -20 c0 -16 7 -20 35 -20 29 0
36 -4 41 -25 8 -32 6 -34 -36 -37 -30 -3 -34 0 -41 27 -4 17 -11 40 -14 53 -5
14 -3 22 4 22 6 0 11 -9 11 -20z m170 12 c0 -4 12 -8 28 -7 23 0 27 -4 30 -31
3 -28 0 -32 -29 -38 -18 -3 -34 -4 -36 -2 -11 11 -15 86 -4 86 6 0 11 -4 11
-8z m-2340 -26 c0 -24 -15 -34 -43 -29 -42 6 -45 11 -16 22 25 10 59 14 59 7z
m2654 -21 c-25 -19 -40 -19 -24 0 7 8 20 15 28 15 13 0 12 -3 -4 -15z m47 -72
c1 -38 4 -58 6 -45 2 12 8 22 13 22 5 0 17 16 26 35 9 20 19 33 22 31 2 -3 13
-1 23 5 16 8 19 6 19 -11 0 -11 4 -20 10 -20 5 0 7 -12 5 -27 -3 -16 -7 -89
-9 -163 -3 -74 -5 -143 -5 -152 -1 -25 -48 -20 -55 5 -2 11 -9 16 -15 12 -16
-9 -26 24 -12 38 14 14 14 44 0 49 -6 2 -14 37 -18 78 l-8 75 -2 -77 c-1 -60
-4 -78 -15 -78 -8 0 -18 9 -21 20 -8 24 -18 25 -35 5 -7 -8 -9 -15 -5 -15 4 0
2 -7 -5 -15 -7 -8 -16 -12 -21 -9 -13 7 -11 281 1 289 6 3 10 1 10 -5 0 -13
63 -3 68 11 2 5 8 9 13 9 5 0 10 -30 10 -67z m266 21 c-3 -3 -12 -4 -19 -1 -8
3 -5 6 6 6 11 1 17 -2 13 -5z m100 -38 c8 -7 -12 -46 -23 -46 -8 0 -14 -7 -14
-15 0 -8 -7 -15 -16 -15 -12 0 -15 8 -12 33 4 41 18 58 43 50 11 -3 21 -6 22
-7z m-171 -29 c9 3 14 -2 14 -15 0 -12 -9 -22 -22 -26 -35 -9 -37 -8 -34 22 5
38 5 37 17 25 6 -6 18 -9 25 -6z m-636 -63 c0 -16 -35 -54 -50 -54 -5 0 -10
15 -10 33 0 31 3 34 30 35 20 0 30 -4 30 -14z m-235 -33 c6 -10 -21 -41 -36
-41 -16 0 -10 29 9 39 21 13 20 13 27 2z m63 -13 c7 -7 12 -27 12 -45 0 -28
-4 -33 -22 -33 -13 0 -33 -3 -45 -6 -13 -4 -23 -2 -23 4 0 6 10 12 23 14 22 3
39 48 18 48 -6 0 -11 7 -11 15 0 18 31 20 48 3z m1162 -17 c0 -10 -7 -24 -15
-31 -11 -9 -13 -16 -5 -24 12 -12 13 -26 1 -26 -5 0 -12 13 -16 29 -3 16 -11
28 -18 27 -21 -2 -19 19 3 22 11 2 20 8 20 13 0 5 7 9 15 9 8 0 15 -8 15 -19z
m44 -17 c4 -11 1 -14 -11 -12 -9 2 -18 9 -21 16 -6 18 25 15 32 -4z m-886 -55
c4 -24 3 -24 -12 -4 -19 24 -20 38 -3 33 6 -3 13 -15 15 -29z m865 11 c3 -11
1 -20 -4 -20 -5 0 -9 9 -9 20 0 11 2 20 4 20 2 0 6 -9 9 -20z m-604 -29 c13
-7 16 -18 13 -39 -3 -24 -9 -30 -28 -28 -19 1 -24 6 -20 19 2 10 -1 17 -11 17
-8 0 -11 -4 -8 -10 3 -5 2 -10 -4 -10 -23 0 -19 20 6 39 33 24 30 23 52 12z
m-2013 -37 c-6 -24 8 -42 19 -24 5 7 12 5 21 -7 13 -17 13 -17 14 5 0 35 24
21 28 -15 l3 -31 -47 9 c-54 10 -74 24 -74 49 0 10 -6 21 -12 23 -20 9 10 26
34 19 15 -3 18 -10 14 -28z m3294 10 c0 -16 5 -24 12 -22 15 5 43 -20 33 -30
-22 -22 -63 11 -63 51 0 15 4 27 9 27 5 0 9 -12 9 -26z m-3250 -4 c0 -5 -7
-10 -15 -10 -8 0 -15 5 -15 10 0 6 7 10 15 10 8 0 15 -4 15 -10z m1347 -32
c-3 -8 -6 -5 -6 6 -1 11 2 17 5 13 3 -3 4 -12 1 -19z m-1167 -10 c0 -9 4 -8
10 2 8 12 13 13 27 2 10 -6 27 -16 39 -21 15 -7 21 -18 20 -38 -1 -26 -4 -28
-36 -25 -52 3 -90 22 -90 42 0 10 -3 25 -6 34 -4 12 0 16 15 16 12 0 21 -6 21
-12z m2248 0 c-6 -16 -36 -34 -44 -25 -9 9 15 37 33 37 8 0 13 -5 11 -12z
m1263 -28 c62 -17 116 -33 122 -37 5 -3 6 -19 2 -37 -3 -17 -12 -65 -19 -106
-13 -70 -24 -110 -31 -110 -17 0 -38 17 -46 36 -6 16 -16 24 -33 24 -15 0 -38
13 -58 33 -18 18 -48 44 -66 56 -22 16 -30 26 -22 31 6 4 11 13 10 21 -1 8 -2
22 -1 33 1 15 4 16 16 6 12 -10 15 -10 15 4 0 9 -7 16 -15 16 -10 0 -15 10
-15 30 0 38 2 38 141 0z m-191 10 c0 -5 -7 -10 -15 -10 -8 0 -15 5 -15 10 0 6
7 10 15 10 8 0 15 -4 15 -10z m-1562 -17 c-2 -9 -11 -17 -21 -19 -9 -1 -15 2
-11 7 3 5 10 7 15 4 5 -4 9 1 9 9 0 9 3 16 6 16 3 0 4 -7 2 -17z m-1492 -14
c3 -6 1 -16 -5 -22 -8 -8 -11 -8 -11 2 0 7 -5 9 -12 5 -7 -5 -5 -11 7 -21 31
-22 48 -17 41 12 -6 23 -5 24 13 13 20 -12 35 -58 23 -70 -9 -9 -105 13 -114
26 -4 6 -8 23 -8 39 0 23 4 27 29 27 17 0 33 -5 37 -11z m3031 -41 c-3 -8 -6
-5 -6 6 -1 11 2 17 5 13 3 -3 4 -12 1 -19z m-2007 -22 c0 -17 -38 -28 -46 -14
-7 11 13 28 34 28 6 0 12 -6 12 -14z m-75 -6 c3 -5 -1 -10 -9 -10 -9 0 -16 5
-16 10 0 6 4 10 9 10 6 0 13 -4 16 -10z m-455 -70 l0 -41 -24 18 -24 18 21 23
c11 12 22 22 24 22 2 0 3 -18 3 -40z m-30 -28 c0 -13 -12 -22 -22 -16 -10 6
-1 24 13 24 5 0 9 -4 9 -8z m-10 -74 c0 -9 4 -8 10 2 8 12 10 11 10 -7 0 -27
-19 -40 -31 -22 -7 11 -9 10 -9 -5 0 -11 -3 -17 -6 -13 -9 9 5 57 16 57 6 0
10 -6 10 -12z m-716 -46 c5 -18 6 -35 3 -38 -11 -12 -37 24 -37 51 0 36 22 27
34 -13z m76 -83 c0 -5 -7 -9 -15 -9 -15 0 -20 12 -9 23 8 8 24 -1 24 -14z m64
-691 c-14 -22 -15 -50 -3 -64 9 -11 6 -16 -14 -23 -15 -6 -27 -20 -29 -33 -4
-20 -5 -21 -13 -5 -5 13 -1 25 15 43 13 13 18 24 12 24 -17 0 -15 27 5 61 10
17 21 25 26 20 5 -5 6 -15 1 -23z m16 -128 c0 -5 -5 -10 -11 -10 -5 0 -7 5 -4
10 3 6 8 10 11 10 2 0 4 -4 4 -10z m71 -7 c12 -13 14 -13 20 4 6 16 8 15 17
-9 11 -27 -3 -88 -21 -88 -4 0 -5 -5 -2 -10 8 -12 -21 -60 -35 -60 -5 0 -7 8
-3 18 5 13 1 12 -16 -5 -25 -26 -27 -43 -6 -43 17 0 19 -18 6 -38 -6 -10 -11
-5 -20 18 -10 29 -14 32 -41 27 -34 -7 -45 4 -30 33 8 14 7 29 -5 56 -14 35
-14 36 6 31 12 -3 22 0 25 8 3 7 17 16 31 20 17 4 23 11 19 21 -3 9 -4 19 -2
23 8 13 45 10 57 -6z m2679 -27 c0 -29 -17 -43 -33 -27 -8 8 -7 11 5 11 11 0
15 6 11 20 -3 11 0 20 6 20 6 0 11 -11 11 -24z m-2770 4 c0 -5 -9 -14 -20 -20
-22 -12 -23 -10 -14 14 7 17 34 22 34 6z m345 -21 c4 -6 14 -8 24 -4 13 5 14
4 4 -6 -20 -20 -16 -41 6 -34 19 6 19 5 4 -25 -8 -17 -13 -34 -10 -37 3 -3 1
-10 -4 -17 -5 -6 -19 -22 -30 -36 l-21 -25 7 23 7 24 -21 -21 c-27 -27 -27
-41 0 -41 18 0 19 -3 9 -15 -6 -8 -9 -18 -6 -24 3 -5 -1 -12 -9 -15 -11 -4
-17 3 -21 24 -7 32 -28 55 -43 46 -5 -3 -7 -14 -4 -25 3 -10 -2 -32 -11 -48
-12 -23 -12 -33 -3 -43 9 -10 9 -11 -3 -8 -8 3 -23 -1 -32 -10 -16 -14 -18
-13 -18 1 0 8 7 23 16 31 14 15 13 16 -13 16 -21 0 -24 3 -14 9 12 8 12 12 2
24 -8 10 -9 17 -1 22 5 3 10 -1 10 -9 0 -25 19 -28 42 -6 19 17 20 22 9 30
-11 6 -12 12 -4 22 6 7 13 38 14 68 l4 55 -32 3 c-35 3 -38 8 -24 31 6 9 15
11 27 6 11 -5 23 -7 28 -6 4 1 14 -3 22 -10 18 -14 48 -3 41 15 -3 8 -3 17 0
20 10 10 41 7 48 -5z m2274 -31 c9 -23 -2 -48 -20 -48 -10 0 -12 31 -3 54 8
22 13 20 23 -6z m-1829 -158 c0 -5 -7 -10 -15 -10 -8 0 -15 5 -15 10 0 6 7 10
15 10 8 0 15 -4 15 -10z m-1200 -30 c0 -5 -4 -10 -10 -10 -5 0 -10 5 -10 10 0
6 5 10 10 10 6 0 10 -4 10 -10z m610 0 c0 -5 -4 -10 -10 -10 -5 0 -10 5 -10
10 0 6 5 10 10 10 6 0 10 -4 10 -10z m-533 -27 c0 -20 -20 -43 -36 -43 -6 0
-11 7 -11 16 0 8 5 12 11 9 6 -4 13 2 16 14 6 25 20 28 20 4z m766 -34 c4 -16
3 -18 -9 -8 -16 13 -19 29 -5 29 5 0 11 -9 14 -21z m-43 -69 c0 -22 -4 -40 -9
-40 -5 0 -7 9 -4 20 4 14 0 20 -11 20 -9 0 -16 5 -16 10 0 6 7 10 15 10 8 0
15 5 15 10 0 6 2 10 5 10 3 0 5 -18 5 -40z m90 10 c9 0 11 -3 4 -10 -15 -15
-50 -1 -51 22 -2 19 -1 19 16 4 10 -9 24 -16 31 -16z m-3 -82 c-3 -8 -6 -5 -6
6 -1 11 2 17 5 13 3 -3 4 -12 1 -19z m-843 -3 c3 -8 1 -15 -4 -15 -6 0 -10 7
-10 15 0 8 2 15 4 15 2 0 6 -7 10 -15z m711 5 c3 -5 1 -10 -4 -10 -6 0 -11 5
-11 10 0 6 2 10 4 10 3 0 8 -4 11 -10z m662 -74 c-3 -8 3 -23 14 -35 11 -12
15 -21 9 -21 -18 0 -11 -17 13 -27 19 -9 20 -12 6 -18 -11 -4 -26 3 -42 19
-33 33 -42 33 -44 0 0 -15 -9 -34 -18 -43 -16 -15 -17 -14 -10 7 6 21 5 23
-13 13 -11 -6 -22 -7 -26 -4 -3 3 -6 -3 -6 -15 0 -11 8 -25 18 -31 12 -7 14
-13 6 -21 -9 -9 -17 -2 -33 24 -24 38 -20 61 9 53 13 -3 20 2 24 20 4 13 11
21 16 18 5 -3 15 1 22 8 7 8 20 12 30 9 21 -5 24 8 6 26 -10 10 -10 15 2 22
20 13 23 12 17 -4z m37 -145 c3 -5 -1 -14 -8 -20 -12 -10 -13 -8 -9 8 6 23 9
25 17 12z"/>
<path d="M3800 4266 c0 -8 -3 -21 -6 -30 -4 -11 -1 -16 10 -16 11 0 16 9 16
30 0 17 -4 30 -10 30 -5 0 -10 -6 -10 -14z"/>
<path d="M3929 4195 c-1 -11 -3 -34 -5 -52 -6 -51 14 -48 22 3 4 29 2 50 -5
57 -8 8 -11 6 -12 -8z"/>
<path d="M4031 4008 c-1 -15 4 -30 9 -33 12 -7 12 12 0 40 -8 18 -9 17 -9 -7z"/>
<path d="M4061 3924 c0 -11 3 -14 6 -6 3 7 2 16 -1 19 -3 4 -6 -2 -5 -13z"/>
<path d="M4020 3850 c0 -5 5 -10 10 -10 6 0 10 5 10 10 0 6 -4 10 -10 10 -5 0
-10 -4 -10 -10z"/>
<path d="M4051 3784 c0 -11 3 -14 6 -6 3 7 2 16 -1 19 -3 4 -6 -2 -5 -13z"/>
<path d="M378 4105 c-6 -7 3 -65 11 -65 12 0 31 40 25 55 -6 14 -25 20 -36 10z"/>
<path d="M445 4069 c11 -51 27 -61 23 -15 -2 22 -9 41 -17 44 -10 3 -12 -3 -6
-29z"/>
<path d="M717 3667 c-3 -7 -2 -39 2 -71 l6 -57 27 28 c21 22 25 34 20 58 l-6
30 -6 -29 c-3 -16 -11 -31 -19 -34 -10 -3 -12 6 -10 42 4 44 -3 61 -14 33z"/>
<path d="M635 3655 c4 -11 9 -30 10 -42 4 -26 13 -43 25 -43 13 0 -9 73 -27
90 -14 13 -15 13 -8 -5z"/>
<path d="M3360 3470 c0 -5 5 -10 10 -10 6 0 10 5 10 10 0 6 -4 10 -10 10 -5 0
-10 -4 -10 -10z"/>
<path d="M3290 3454 c0 -12 6 -15 23 -10 12 3 25 6 30 6 4 0 7 5 7 10 0 6 -13
10 -30 10 -21 0 -30 -5 -30 -16z"/>
<path d="M2877 3185 c-2 -15 0 -24 6 -22 13 4 20 47 8 47 -5 0 -11 -11 -14
-25z"/>
<path d="M2748 3183 c7 -3 16 -2 19 1 4 3 -2 6 -13 5 -11 0 -14 -3 -6 -6z"/>
<path d="M997 3113 c-17 -16 -5 -33 23 -33 28 0 30 2 20 20 -11 20 -31 26 -43
13z"/>
<path d="M4451 3034 c0 -11 3 -14 6 -6 3 7 2 16 -1 19 -3 4 -6 -2 -5 -13z"/>
<path d="M4507 3033 c-4 -3 -7 -16 -7 -28 0 -32 44 -29 48 3 4 26 -12 29 -28
5 -10 -16 -11 -15 -7 5 5 23 4 26 -6 15z"/>
<path d="M4430 2980 c-9 -6 -10 -10 -3 -10 6 0 15 5 18 10 8 12 4 12 -15 0z"/>
<path d="M1140 1807 c0 -9 -8 -17 -17 -18 -10 0 -13 -3 -6 -5 9 -4 9 -11 1
-30 -17 -37 -5 -38 32 -4 l33 31 -21 22 c-19 19 -22 19 -22 4z"/>
<path d="M1425 1790 c-3 -5 -1 -10 4 -10 6 0 11 5 11 10 0 6 -2 10 -4 10 -3 0
-8 -4 -11 -10z"/>
<path d="M1392 1763 c0 -5 -6 -24 -15 -43 -19 -42 -12 -59 14 -31 10 11 27 25
36 31 13 8 14 13 6 16 -7 3 -13 12 -13 20 0 8 -7 14 -15 14 -8 0 -14 -3 -13
-7z"/>
<path d="M980 5390 c20 -13 40 -13 40 0 0 6 -12 10 -27 10 -22 0 -25 -2 -13
-10z"/>
<path d="M1073 5370 c0 -17 5 -27 10 -23 6 4 8 -1 4 -11 -5 -12 -3 -16 5 -14
7 3 14 14 16 26 2 16 10 22 27 22 18 0 23 4 19 15 -4 10 -20 15 -43 15 -35 0
-38 -2 -38 -30z"/>
<path d="M1215 5386 c-48 -26 -78 -54 -71 -64 9 -15 56 -16 56 -2 0 6 -4 10
-10 10 -5 0 -10 7 -10 15 0 9 9 15 21 15 16 0 20 -5 16 -19 -5 -22 31 -43 54
-31 8 4 34 10 59 14 61 9 167 45 181 62 9 11 -15 13 -133 12 -88 0 -151 -4
-163 -12z"/>
<path d="M170 5327 c0 -10 5 -17 11 -17 8 0 8 -4 0 -14 -9 -11 -6 -16 19 -25
29 -10 31 -9 24 12 -3 12 -7 22 -8 22 0 0 -11 9 -23 19 -20 17 -23 17 -23 3z"/>
<path d="M1026 5324 c-8 -20 0 -32 14 -18 5 5 5 15 1 22 -6 11 -10 10 -15 -4z"/>
<path d="M1215 5288 c-18 -10 -56 -17 -132 -22 -13 0 -23 -4 -23 -8 0 -5 -10
-8 -22 -8 -15 -1 -7 -7 22 -16 25 -9 49 -20 55 -25 24 -23 87 4 70 31 -3 5 3
11 14 11 12 1 27 2 34 3 13 1 24 46 10 46 -4 0 -17 -6 -28 -12z"/>
<path d="M1999 5158 c-5 -18 -6 -59 -2 -54 7 6 13 56 7 56 -2 0 -4 -1 -5 -2z"/>
<path d="M2117 5149 c-9 -6 -17 -17 -17 -24 0 -8 -7 -15 -15 -15 -17 0 -34
-30 -27 -49 3 -10 -1 -12 -17 -8 -22 5 -38 -7 -21 -18 5 -3 9 -16 9 -28 -1
-16 -3 -17 -6 -5 -2 9 -13 16 -24 15 -21 -1 -23 -6 -10 -26 10 -15 4 -41 -8
-41 -14 0 -32 52 -26 74 6 20 5 20 -15 -3 -18 -21 -19 -25 -4 -35 14 -11 14
-14 1 -24 -12 -10 -19 -6 -38 22 -24 35 -47 40 -29 6 7 -12 7 -21 0 -25 -5 -3
-15 -15 -21 -27 -6 -11 -7 -18 -2 -15 5 3 30 8 55 11 34 4 51 2 62 -9 8 -8 36
-16 63 -18 l48 -2 9 70 c6 39 16 76 23 84 8 7 12 20 9 27 -5 13 7 18 40 17 14
0 7 32 -10 46 -7 6 -18 6 -29 0z"/>
<path d="M1880 5125 c0 -8 5 -15 10 -15 6 0 10 7 10 15 0 8 -4 15 -10 15 -5 0
-10 -7 -10 -15z"/>
<path d="M1045 5100 c-3 -5 0 -20 7 -32 l13 -23 3 24 c3 19 6 21 13 10 6 -9 9
-10 9 -2 0 17 -37 36 -45 23z"/>
<path d="M2000 5079 c0 -5 5 -7 10 -4 6 3 10 8 10 11 0 2 -4 4 -10 4 -5 0 -10
-5 -10 -11z"/>
<path d="M1015 5000 c3 -5 11 -10 16 -10 6 0 7 5 4 10 -3 6 -11 10 -16 10 -6
0 -7 -4 -4 -10z"/>
<path d="M2176 4966 c-13 -31 -14 -41 -4 -48 10 -6 8 -8 -4 -8 -21 0 -24 -16
-5 -23 9 -3 9 -8 1 -18 -6 -8 -9 -26 -8 -41 2 -18 -2 -28 -10 -28 -8 0 -19 -7
-26 -15 -7 -8 -16 -12 -21 -9 -5 3 -9 0 -9 -7 0 -6 8 -9 20 -6 23 6 36 -8 18
-19 -7 -5 -3 -10 13 -17 23 -9 23 -9 4 -17 -16 -6 -10 -9 30 -18 27 -6 53 -8
57 -6 4 3 8 0 8 -6 0 -7 7 -10 15 -6 9 3 23 -3 32 -14 10 -11 22 -20 27 -20 5
0 1 9 -9 20 -17 19 -17 20 16 52 19 18 38 31 42 30 22 -6 83 93 65 104 -6 4
-14 1 -18 -6 -4 -7 -12 -10 -18 -6 -6 3 -12 1 -14 -6 -3 -7 -9 -8 -19 -3 -8 5
-23 8 -34 7 -36 -4 -51 13 -37 42 10 23 9 26 -9 26 -11 0 -17 5 -14 10 3 6 -4
10 -16 10 -18 0 -21 5 -17 30 4 24 1 30 -13 30 -9 0 -19 6 -22 13 -2 6 -12 -6
-21 -27z m24 -146 c0 -5 -4 -10 -10 -10 -5 0 -10 5 -10 10 0 6 5 10 10 10 6 0
10 -4 10 -10z"/>
<path d="M670 4900 c0 -5 4 -10 9 -10 6 0 13 5 16 10 3 6 -1 10 -9 10 -9 0
-16 -4 -16 -10z"/>
<path d="M2561 4884 c0 -11 3 -14 6 -6 3 7 2 16 -1 19 -3 4 -6 -2 -5 -13z"/>
<path d="M2615 4890 c3 -5 8 -10 11 -10 2 0 4 5 4 10 0 6 -5 10 -11 10 -5 0
-7 -4 -4 -10z"/>
<path d="M2440 4875 c0 -8 5 -15 10 -15 6 0 10 7 10 15 0 8 -4 15 -10 15 -5 0
-10 -7 -10 -15z"/>
<path d="M600 4860 c0 -6 7 -10 15 -10 8 0 15 2 15 4 0 2 -7 6 -15 10 -8 3
-15 1 -15 -4z"/>
<path d="M670 4860 c0 -5 7 -10 16 -10 8 0 12 5 9 10 -3 6 -10 10 -16 10 -5 0
-9 -4 -9 -10z"/>
<path d="M2100 4857 c0 -18 27 -53 34 -46 9 9 -11 59 -24 59 -5 0 -10 -6 -10
-13z"/>
<path d="M2490 4859 c0 -5 5 -7 10 -4 6 3 10 8 10 11 0 2 -4 4 -10 4 -5 0 -10
-5 -10 -11z"/>
<path d="M2595 4860 c-3 -5 -1 -10 4 -10 6 0 11 5 11 10 0 6 -2 10 -4 10 -3 0
-8 -4 -11 -10z"/>
<path d="M2861 4854 c0 -11 3 -14 6 -6 3 7 2 16 -1 19 -3 4 -6 -2 -5 -13z"/>
<path d="M640 4840 c0 -5 5 -10 11 -10 5 0 7 5 4 10 -3 6 -8 10 -11 10 -2 0
-4 -4 -4 -10z"/>
<path d="M680 4830 c-13 -8 -13 -10 2 -10 9 0 20 5 23 10 8 13 -5 13 -25 0z"/>
<path d="M30 4820 c0 -5 5 -10 10 -10 6 0 10 5 10 10 0 6 -4 10 -10 10 -5 0
-10 -4 -10 -10z"/>
<path d="M1 4804 c0 -11 3 -14 6 -6 3 7 2 16 -1 19 -3 4 -6 -2 -5 -13z"/>
<path d="M710 4807 c0 -8 7 -17 15 -21 8 -3 15 -2 15 3 0 5 -7 14 -15 21 -12
10 -15 10 -15 -3z"/>
<path d="M1596 4777 c3 -10 9 -15 12 -12 3 3 0 11 -7 18 -10 9 -11 8 -5 -6z"/>
<path d="M0 4751 c0 -22 6 -32 22 -37 13 -4 24 -2 26 5 2 6 8 11 14 11 5 0 16
7 24 15 14 13 13 15 -3 17 -10 0 -24 1 -30 1 -7 -1 -13 3 -13 8 0 5 -9 9 -20
9 -15 0 -20 -7 -20 -29z"/>
<path d="M2563 4751 c4 -16 -2 -30 -19 -46 -13 -12 -24 -26 -24 -30 0 -4 14 6
30 23 33 35 35 40 19 62 -9 12 -10 10 -6 -9z"/>
<path d="M2670 4764 c0 -9 32 -33 44 -34 5 0 1 9 -9 20 -18 20 -35 26 -35 14z"/>
<path d="M2510 4748 c0 -9 5 -20 10 -23 13 -8 13 5 0 25 -8 13 -10 13 -10 -2z"/>
<path d="M2440 4709 c0 -5 5 -7 10 -4 6 3 10 8 10 11 0 2 -4 4 -10 4 -5 0 -10
-5 -10 -11z"/>
<path d="M1410 4700 c0 -5 5 -10 10 -10 6 0 10 5 10 10 0 6 -4 10 -10 10 -5 0
-10 -4 -10 -10z"/>
<path d="M2095 4670 c3 -5 8 -10 11 -10 2 0 4 5 4 10 0 6 -5 10 -11 10 -5 0
-7 -4 -4 -10z"/>
<path d="M2178 4673 c7 -3 16 -2 19 1 4 3 -2 6 -13 5 -11 0 -14 -3 -6 -6z"/>
<path d="M3037 4659 c3 -10 9 -16 14 -13 13 8 11 21 -5 27 -10 4 -12 0 -9 -14z"/>
<path d="M1435 4370 c-8 -13 -3 -80 7 -86 4 -3 8 18 8 45 0 51 -3 60 -15 41z"/>
<path d="M1486 4324 c-10 -25 -7 -64 5 -64 5 0 9 8 8 18 -3 36 2 51 19 55 13
4 12 5 -4 6 -12 0 -25 -6 -28 -15z"/>
<path d="M1538 4303 c-10 -2 -18 -8 -18 -13 0 -4 9 -6 20 -3 11 3 20 9 20 14
0 5 -1 8 -2 8 -2 -1 -11 -3 -20 -6z"/>
<path d="M1591 4224 c0 -11 3 -14 6 -6 3 7 2 16 -1 19 -3 4 -6 -2 -5 -13z"/>
<path d="M4900 3874 c-14 -37 -12 -64 5 -64 8 0 18 -1 22 -2 4 -2 11 15 15 36
6 29 5 42 -4 48 -21 13 -28 9 -38 -18z"/>
<path d="M5063 3831 c-12 -46 -13 -46 41 -55 45 -9 56 1 56 52 0 20 -5 32 -14
32 -7 0 -27 3 -43 6 -28 6 -31 4 -40 -35z"/>
<path d="M5185 3823 c-15 -68 -17 -63 35 -62 40 2 49 6 54 23 10 35 7 42 -19
54 -43 20 -64 15 -70 -15z"/>
<path d="M5387 3786 c-5 -21 -6 -41 -3 -44 12 -11 17 7 14 44 l-3 39 -8 -39z"/>
<path d="M1671 3764 c0 -11 3 -14 6 -6 3 7 2 16 -1 19 -3 4 -6 -2 -5 -13z"/>
<path d="M1710 3711 c0 -12 5 -21 10 -21 6 0 10 6 10 14 0 8 -4 18 -10 21 -5
3 -10 -3 -10 -14z"/>
<path d="M5046 3709 c-9 -13 -16 -33 -16 -46 0 -18 7 -23 45 -29 25 -3 47 -5
49 -3 2 2 6 21 10 42 7 36 6 37 -22 37 -15 0 -33 5 -39 11 -8 8 -15 4 -27 -12z"/>
<path d="M5153 3665 c-12 -39 -3 -51 25 -36 11 6 24 6 33 0 7 -5 17 -9 22 -9
12 0 8 28 -5 33 -8 3 -6 6 5 6 26 1 21 20 -9 31 -45 18 -60 12 -71 -25z"/>
<path d="M5350 3600 c0 -5 7 -10 15 -10 8 0 15 5 15 10 0 6 -7 10 -15 10 -8 0
-15 -4 -15 -10z"/>
<path d="M3960 3443 c0 -13 5 -23 10 -23 13 0 13 11 0 30 -8 12 -10 11 -10 -7z"/>
<path d="M3924 3366 c-3 -21 -2 -42 3 -47 7 -7 12 3 16 28 8 50 -9 68 -19 19z"/>
<path d="M1931 3364 c0 -11 3 -14 6 -6 3 7 2 16 -1 19 -3 4 -6 -2 -5 -13z"/>
<path d="M3973 3295 c-1 -19 3 -35 8 -35 5 0 9 16 9 35 0 46 -14 46 -17 0z"/>
<path d="M1976 3311 c-4 -7 -5 -15 -2 -18 9 -9 19 4 14 18 -4 11 -6 11 -12 0z"/>
<path d="M30 3301 c0 -5 5 -13 10 -16 6 -3 10 -2 10 4 0 5 -4 13 -10 16 -5 3
-10 2 -10 -4z"/>
<path d="M575 3203 c8 -46 12 -53 31 -53 10 0 13 9 10 35 -5 43 -13 55 -33 55
-12 0 -14 -7 -8 -37z"/>
<path d="M14 3189 c3 -18 11 -38 16 -43 16 -16 25 3 12 24 -7 11 -7 20 -2 22
6 2 1 9 -11 17 -21 12 -22 12 -15 -20z"/>
<path d="M90 3181 c0 -27 26 -46 34 -25 6 17 -9 44 -25 44 -5 0 -9 -8 -9 -19z"/>
<path d="M4150 3125 c0 -58 14 -58 18 0 1 25 -2 45 -8 45 -5 0 -10 -20 -10
-45z"/>
<path d="M2590 3150 c0 -5 5 -10 10 -10 6 0 10 5 10 10 0 6 -4 10 -10 10 -5 0
-10 -4 -10 -10z"/>
<path d="M447 3100 c3 -11 7 -20 9 -20 2 0 4 9 4 20 0 11 -4 20 -9 20 -5 0 -7
-9 -4 -20z"/>
<path d="M546 3093 c10 -42 44 -60 44 -24 0 20 -25 51 -41 51 -5 0 -6 -12 -3
-27z"/>
<path d="M3320 3110 c0 -5 5 -10 10 -10 6 0 10 5 10 10 0 6 -4 10 -10 10 -5 0
-10 -4 -10 -10z"/>
<path d="M640 3071 c0 -21 6 -32 21 -36 30 -10 33 0 13 34 -23 39 -34 39 -34
2z"/>
<path d="M20 3079 c0 -6 -4 -8 -9 -5 -7 5 -8 -21 -2 -69 1 -5 6 -3 11 5 8 13
10 12 10 -2 0 -10 -7 -18 -15 -18 -27 0 -15 -17 16 -24 47 -9 53 -8 39 9 -10
12 -10 19 -2 27 16 16 15 28 -3 28 -20 0 -19 17 3 29 19 11 21 9 -33 26 -8 2
-15 0 -15 -6z"/>
<path d="M4200 3046 c0 -8 5 -18 10 -21 6 -3 10 3 10 14 0 12 -4 21 -10 21 -5
0 -10 -6 -10 -14z"/>
<path d="M740 3015 c0 -28 4 -35 20 -35 22 0 26 20 10 51 -16 30 -30 23 -30
-16z"/>
<path d="M4091 3024 c0 -11 3 -14 6 -6 3 7 2 16 -1 19 -3 4 -6 -2 -5 -13z"/>
<path d="M810 3011 c0 -19 39 -66 47 -57 2 2 0 19 -5 37 -9 38 -42 53 -42 20z"/>
<path d="M892 2982 c2 -26 8 -38 21 -40 27 -5 24 64 -4 71 -18 5 -20 1 -17
-31z"/>
<path d="M569 2999 c14 -5 28 -6 33 -1 4 4 -7 9 -25 9 -30 2 -31 2 -8 -8z"/>
<path d="M4846 2973 c-4 -15 -9 -35 -12 -44 -7 -23 93 -49 107 -28 11 17 12
79 2 80 -5 0 -15 2 -23 5 -65 17 -67 17 -74 -13z"/>
<path d="M980 2960 c0 -33 7 -38 60 -42 32 -3 35 -1 32 22 -5 32 -10 36 -54
44 -37 7 -38 6 -38 -24z"/>
<path d="M495 2970 c-4 -6 -2 -17 4 -23 15 -15 25 -2 13 19 -7 12 -11 13 -17
4z"/>
<path d="M200 2955 c0 -8 4 -15 10 -15 5 0 7 7 4 15 -4 8 -8 15 -10 15 -2 0
-4 -7 -4 -15z"/>
<path d="M5010 2935 c-22 -59 -1 -85 70 -85 30 0 40 15 40 60 0 24 -5 29 -32
35 -18 4 -41 9 -50 11 -13 4 -21 -3 -28 -21z"/>
<path d="M1145 2941 c-8 -14 16 -61 32 -61 14 0 17 27 7 54 -7 18 -29 21 -39
7z"/>
<path d="M606 2931 c-4 -7 -5 -15 -2 -18 9 -9 19 4 14 18 -4 11 -6 11 -12 0z"/>
<path d="M1230 2912 c0 -27 15 -52 32 -52 13 0 9 55 -4 68 -19 19 -28 14 -28
-16z"/>
<path d="M700 2909 c0 -11 5 -17 10 -14 6 3 10 13 10 21 0 8 -4 14 -10 14 -5
0 -10 -9 -10 -21z"/>
<path d="M756 2911 c-9 -14 2 -74 16 -82 23 -15 28 -10 28 25 0 41 -30 80 -44
57z"/>
<path d="M1310 2885 c0 -28 4 -35 20 -35 23 0 28 38 8 58 -20 20 -28 14 -28
-23z"/>
<path d="M5179 2883 c-5 -16 -11 -33 -14 -40 -4 -12 16 -23 40 -23 19 0 30 57
15 75 -18 22 -29 18 -41 -12z"/>
<path d="M1430 2862 c0 -30 19 -45 74 -57 26 -6 28 -4 22 17 -4 13 -8 30 -10
38 -3 14 -33 27 -68 29 -13 1 -18 -7 -18 -27z"/>
<path d="M707 2866 c-4 -10 -5 -21 -2 -24 9 -9 17 6 13 25 -3 17 -4 17 -11 -1z"/>
<path d="M4744 2852 c3 -5 0 -13 -6 -15 -8 -3 -6 -6 5 -6 19 -1 23 14 5 25 -6
4 -8 3 -4 -4z"/>
<path d="M4822 2830 c-18 -30 -15 -39 21 -54 19 -9 25 -15 15 -15 -28 -1 -21
-18 10 -24 36 -7 52 8 52 49 0 27 -5 36 -22 43 -56 21 -63 21 -76 1z"/>
<path d="M1140 2819 l-25 -10 28 -21 c19 -14 27 -29 27 -49 0 -22 5 -29 20
-29 11 0 20 5 20 11 0 5 -4 7 -10 4 -5 -3 -10 1 -10 10 0 9 5 13 10 10 6 -3
10 -1 10 4 0 22 39 11 42 -11 4 -27 38 -38 38 -13 0 9 -4 14 -9 11 -5 -3 -11
1 -15 9 -3 9 0 15 10 15 28 0 11 35 -17 35 -15 1 -38 9 -52 18 -30 19 -33 20
-67 6z"/>
<path d="M5327 2803 c-4 -3 -7 -19 -7 -34 0 -19 5 -26 18 -25 9 0 16 -5 15
-11 -4 -20 15 -15 27 6 15 29 12 58 -6 65 -20 8 -39 8 -47 -1z"/>
<path d="M4987 2793 c-19 -18 -5 -41 27 -47 19 -4 37 -12 40 -19 3 -9 7 -8 15
3 14 19 14 43 1 35 -5 -3 -7 0 -4 8 7 20 -62 38 -79 20z"/>
<path d="M1320 2746 c0 -33 11 -48 38 -52 19 -3 14 13 -10 32 -15 11 -17 14
-6 11 10 -4 20 -2 23 3 9 15 -7 40 -26 40 -15 0 -19 -7 -19 -34z"/>
<path d="M2241 2740 c-13 -11 -18 -20 -11 -20 18 0 50 20 50 30 0 15 -12 11
-39 -10z"/>
<path d="M5163 2743 c-21 -7 -15 -33 7 -33 11 0 20 6 20 14 0 18 -11 25 -27
19z"/>
<path d="M5282 2638 c-18 -18 -15 -68 3 -68 18 0 20 -16 3 -24 -7 -3 0 -3 17
0 38 7 52 19 57 49 9 42 -50 73 -80 43z"/>
<path d="M110 2491 c0 -36 12 -51 40 -51 30 0 47 14 30 25 -5 3 -10 15 -10 26
0 14 -7 19 -30 19 -23 0 -30 -5 -30 -19z"/>
<path d="M230 2471 c0 -30 14 -41 52 -41 14 0 18 5 14 16 -3 9 -6 24 -6 35 0
14 -7 19 -30 19 -26 0 -30 -3 -30 -29z"/>
<path d="M460 2481 c0 -38 19 -71 40 -71 26 0 32 16 22 55 -6 23 -15 31 -35
33 -21 3 -27 -1 -27 -17z"/>
<path d="M566 2492 c-3 -3 -6 -20 -6 -39 0 -27 5 -35 26 -43 14 -6 27 -10 30
-10 6 0 5 41 -2 67 -6 20 -37 37 -48 25z"/>
<path d="M5290 2443 c-19 -23 -24 -54 -6 -47 7 3 16 -2 19 -10 14 -35 42 -13
61 47 8 25 -7 21 -19 -5 -16 -36 -36 -35 -25 1 10 35 -5 42 -30 14z"/>
<path d="M5384 2376 c-8 -18 -8 -28 -1 -35 16 -16 -5 -13 -27 4 -28 21 -44 19
-51 -7 -6 -24 -14 -42 -35 -93 -10 -22 -14 -26 -17 -13 -3 11 -10 15 -21 11
-21 -8 -42 -29 -42 -41 0 -5 -9 -17 -20 -27 -11 -10 -20 -14 -20 -8 0 5 -15
10 -32 11 -28 0 -30 -1 -12 -8 27 -10 38 -26 24 -35 -5 -3 -7 -18 -4 -33 4
-19 -1 -35 -14 -52 l-19 -24 -12 21 c-7 14 -8 24 -1 28 5 3 9 16 9 28 -1 17
-2 18 -6 4 -3 -13 -12 -16 -40 -13 -35 5 -113 -21 -113 -36 0 -14 -18 -8 -22
7 -2 10 -8 12 -17 6 -8 -5 -10 -14 -6 -21 13 -22 12 -80 -1 -91 -8 -6 -11 -16
-8 -21 4 -6 1 -14 -7 -19 -11 -6 -10 -12 6 -29 18 -20 18 -20 -5 -18 -12 2
-25 -3 -28 -11 -3 -8 0 -11 7 -7 6 4 11 1 11 -8 0 -8 -5 -18 -11 -21 -6 -4 -8
-13 -5 -20 2 -7 0 -17 -5 -22 -5 -5 -13 -29 -17 -53 -8 -48 -32 -68 -32 -26 0
13 4 27 9 30 4 3 7 28 6 56 -3 38 -9 55 -27 70 -20 18 -21 19 -3 14 16 -6 18
-4 8 6 -17 18 -49 -6 -33 -25 7 -9 8 -15 1 -19 -7 -4 -7 -15 -1 -30 5 -13 6
-27 3 -30 -12 -12 -33 -6 -33 9 0 8 5 15 12 15 6 0 2 10 -10 23 -15 16 -18 26
-11 40 6 9 7 17 3 17 -4 0 -55 -31 -113 -69 -161 -104 -191 -116 -191 -75 0 8
-5 14 -11 14 -5 0 -8 4 -5 9 4 5 3 17 -1 27 -6 16 -7 16 -20 -2 -7 -10 -13
-26 -13 -35 0 -10 -8 -31 -17 -48 -14 -24 -23 -29 -42 -24 -17 4 -22 2 -19 -8
2 -7 14 -16 25 -19 21 -5 21 -6 3 -27 -10 -13 -23 -23 -29 -23 -11 0 -15 -13
-12 -37 2 -15 -8 -16 -28 -4 -10 7 -11 13 -2 30 7 11 16 21 21 21 6 0 10 5 10
11 0 6 -9 9 -20 6 -21 -5 -28 7 -10 18 15 9 12 25 -5 25 -8 0 -19 -9 -25 -20
-8 -14 -8 -20 0 -20 6 0 1 -15 -12 -32 -12 -18 -21 -42 -20 -53 3 -28 -15 -54
-26 -37 -5 7 -16 10 -24 7 -11 -4 -19 3 -26 24 -6 16 -8 32 -5 35 10 10 -8 7
-40 -8 -18 -8 -99 -37 -182 -66 -82 -29 -158 -57 -167 -62 -16 -8 -14 -16 24
-86 108 -203 106 -198 218 -386 25 -42 53 -79 63 -82 53 -17 453 116 579 193
21 13 42 23 48 23 23 0 6 28 -51 86 -35 35 -60 68 -57 76 3 7 48 35 99 62 195
101 224 119 333 200 61 45 117 95 125 110 17 31 69 66 100 66 12 0 31 11 43
25 17 20 28 24 53 19 24 -4 35 0 50 16 11 12 30 26 43 31 l22 9 0 300 c0 165
-1 300 -2 300 -2 0 -8 -11 -14 -24z m-183 -223 c3 -30 0 -65 -5 -71 -11 -11
-36 9 -36 28 0 44 38 83 41 43z m-240 -105 c1 -7 1 -16 0 -20 0 -5 3 -8 8 -8
5 0 4 -11 -2 -25 -14 -30 -37 -33 -37 -6 0 11 -4 22 -10 26 -5 3 -2 14 8 25
20 22 32 25 33 8z m244 2 c3 -5 1 -10 -4 -10 -6 0 -11 5 -11 10 0 6 2 10 4 10
3 0 8 -4 11 -10z m-85 -50 c12 -8 11 -10 -7 -10 -12 0 -25 5 -28 10 -8 13 15
13 35 0z m-685 -320 c3 -5 1 -10 -4 -10 -6 0 -11 5 -11 10 0 6 2 10 4 10 3 0
8 -4 11 -10z m-17 -100 c-13 -21 -29 -22 -35 -3 -4 10 11 17 40 22 4 0 2 -8
-5 -19z m-12 -35 c10 -2 21 -4 23 -4 2 -1 -2 -8 -9 -16 -10 -13 -9 -15 11 -15
23 -1 23 -1 5 -15 -16 -12 -21 -11 -41 11 -29 32 -44 30 -51 -5 -6 -30 -44
-52 -44 -25 0 12 -4 12 -20 2 -21 -13 -27 -38 -10 -38 6 0 10 -7 10 -16 0 -8
-4 -13 -9 -9 -5 3 -11 -5 -13 -17 -2 -12 -9 -23 -17 -26 -10 -3 -12 2 -8 20 4
13 0 36 -8 51 -13 25 -12 30 5 47 11 11 20 16 20 10 0 -18 29 -11 40 10 6 11
17 20 26 20 8 0 17 7 20 15 4 10 14 13 28 9 12 -3 31 -7 42 -9z m14 -105 c0
-5 -4 -10 -10 -10 -5 0 -10 5 -10 10 0 6 5 10 10 10 6 0 10 -4 10 -10z"/>
<path d="M126 2375 c-9 -26 -7 -32 5 -12 6 10 9 21 6 23 -2 3 -7 -2 -11 -11z"/>
<path d="M298 2373 c7 -3 16 -2 19 1 4 3 -2 6 -13 5 -11 0 -14 -3 -6 -6z"/>
<path d="M0 2051 c0 -357 -1 -351 68 -307 53 33 144 82 412 224 52 27 131 71
174 96 44 25 85 47 90 49 6 3 -2 15 -19 28 -25 20 -38 23 -90 20 -33 -1 -65
-7 -70 -12 -17 -13 -58 -7 -87 13 -25 17 -30 17 -62 4 -46 -19 -183 -29 -266
-19 -61 8 -65 10 -68 35 -2 15 1 35 7 45 7 13 5 23 -6 36 -13 14 -14 22 -5 42
8 17 8 25 1 25 -6 0 -22 9 -36 20 -14 11 -30 20 -34 20 -5 0 -9 -144 -9 -319z
m70 79 c0 -5 -7 -10 -15 -10 -8 0 -15 5 -15 10 0 6 7 10 15 10 8 0 15 -4 15
-10z m0 -180 c0 -5 -5 -10 -11 -10 -5 0 -8 -4 -5 -9 3 -5 -1 -11 -9 -15 -20
-7 -29 12 -15 29 14 17 40 20 40 5z"/>
<path d="M153 2353 c-15 -6 -17 -39 -3 -48 6 -4 6 -15 0 -31 -12 -31 -12 -34
-1 -34 17 0 42 32 37 47 -3 8 -1 11 4 8 6 -3 10 -15 10 -26 0 -11 4 -18 9 -14
14 8 8 69 -8 89 -14 16 -26 19 -48 9z"/>
<path d="M5060 2299 c0 -6 -13 -30 -30 -54 -35 -51 -38 -65 -10 -58 11 3 20
12 20 20 0 7 14 27 30 43 23 22 26 30 14 30 -10 0 -14 5 -10 15 3 8 1 15 -4
15 -6 0 -10 -5 -10 -11z"/>
<path d="M128 2293 c7 -3 16 -2 19 1 4 3 -2 6 -13 5 -11 0 -14 -3 -6 -6z"/>
<path d="M5174 2279 c-3 -6 -1 -16 4 -21 13 -13 45 8 36 23 -7 12 -31 11 -40
-2z"/>
<path d="M268 2273 c7 -3 16 -2 19 1 4 3 -2 6 -13 5 -11 0 -14 -3 -6 -6z"/>
<path d="M5146 2225 c-3 -8 -18 -15 -33 -15 -24 -1 -25 -2 -10 -11 13 -8 24
-5 47 11 33 24 37 30 16 30 -8 0 -16 -7 -20 -15z"/>
<path d="M3403 2219 c-25 -7 -31 -13 -26 -27 10 -28 24 -42 44 -42 15 0 19 8
19 40 0 22 -1 40 -2 39 -2 0 -17 -5 -35 -10z"/>
<path d="M992 2102 c-38 -37 -39 -41 -24 -54 33 -28 45 -32 38 -12 -6 22 14
53 35 52 62 -4 76 10 32 33 -16 7 -31 15 -35 17 -3 2 -24 -15 -46 -36z"/>
<path d="M4917 2123 c-4 -3 -7 -11 -7 -17 0 -6 5 -5 12 2 6 6 9 14 7 17 -3 3
-9 2 -12 -2z"/>
<path d="M4865 2100 c4 -6 1 -17 -5 -25 -18 -22 4 -18 23 3 18 19 14 32 -10
32 -8 0 -11 -5 -8 -10z"/>
<path d="M4830 1990 c0 -5 5 -10 10 -10 6 0 10 5 10 10 0 6 -4 10 -10 10 -5 0
-10 -4 -10 -10z"/>
<path d="M3530 1964 c0 -8 5 -12 10 -9 6 3 10 10 10 16 0 5 -4 9 -10 9 -5 0
-10 -7 -10 -16z"/>
<path d="M997 1813 c-4 -3 -7 -11 -7 -17 0 -6 5 -5 12 2 6 6 9 14 7 17 -3 3
-9 2 -12 -2z"/>
<path d="M4248 1760 c-21 -23 -24 -80 -5 -80 18 1 60 70 42 70 -7 0 -15 7 -17
15 -2 13 -6 12 -20 -5z"/>
<path d="M2683 1730 c0 -25 2 -35 4 -22 2 12 2 32 0 45 -2 12 -4 2 -4 -23z"/>
<path d="M2570 1730 c0 -16 -4 -30 -10 -30 -5 0 -10 -5 -10 -12 0 -9 3 -9 12
0 7 7 25 12 40 12 24 0 28 4 28 30 0 27 -3 30 -30 30 -27 0 -30 -3 -30 -30z"/>
<path d="M586 1735 c4 -8 1 -15 -5 -15 -6 0 -11 -8 -12 -17 0 -11 -3 -13 -6
-5 -5 13 -33 17 -33 4 0 -10 33 -42 44 -42 4 0 14 6 22 14 15 15 9 76 -7 76
-5 0 -6 -7 -3 -15z"/>
<path d="M2733 1723 c3 -23 9 -29 36 -31 29 -3 32 -1 26 17 -4 12 -2 21 4 21
6 0 11 5 11 10 0 6 -18 10 -40 10 -39 0 -40 -1 -37 -27z"/>
<path d="M3723 1646 c-18 -6 -36 -16 -40 -20 -4 -5 0 -6 10 -3 10 4 24 7 31 7
7 0 21 7 32 15 22 17 12 17 -33 1z"/>
<path d="M0 1578 c0 -37 4 -48 16 -48 9 0 21 13 27 29 6 16 21 34 34 40 35 16
19 30 -32 28 l-45 -2 0 -47z"/>
<path d="M570 1590 c0 -5 5 -10 10 -10 6 0 10 5 10 10 0 6 -4 10 -10 10 -5 0
-10 -4 -10 -10z"/>
<path d="M530 1557 c0 -7 9 -18 20 -25 18 -11 19 -10 8 13 -12 26 -28 34 -28
12z"/>
<path d="M2902 1530 c0 -14 2 -19 5 -12 2 6 2 18 0 25 -3 6 -5 1 -5 -13z"/>
<path d="M1992 1437 c-9 -11 -10 -17 -2 -22 15 -9 23 -1 18 21 -3 15 -4 16
-16 1z"/>
<path d="M3405 1390 c-3 -5 -1 -10 4 -10 6 0 11 5 11 10 0 6 -2 10 -4 10 -3 0
-8 -4 -11 -10z"/>
<path d="M0 931 l0 -460 30 -17 c22 -14 27 -21 18 -31 -7 -9 -7 -13 1 -13 6 0
11 -4 11 -10 0 -5 -15 -11 -32 -11 -24 -1 -27 -3 -11 -6 21 -4 22 -6 8 -27 -9
-13 -13 -31 -9 -40 3 -9 1 -16 -4 -16 -17 0 -13 -120 4 -127 19 -7 18 -23 -2
-23 -12 0 -15 -12 -13 -60 2 -45 6 -60 17 -60 9 0 12 6 7 18 -5 13 -3 14 6 5
6 -6 18 -9 26 -6 7 3 13 2 12 -3 -8 -43 -4 -44 122 -44 92 0 120 3 116 13 -2
6 -16 12 -30 12 -15 -1 -27 3 -27 7 0 4 -6 8 -14 8 -9 0 -12 7 -9 20 4 16 9
18 26 9 17 -9 19 -9 14 4 -3 9 -9 32 -13 52 -6 34 -35 65 -60 65 -9 0 -10 -9
-2 -36 11 -43 -2 -65 -27 -44 -9 8 -15 8 -15 2 0 -6 5 -14 10 -17 15 -9 12
-25 -5 -25 -8 0 -15 5 -15 10 0 6 -7 10 -15 10 -32 0 -76 70 -79 126 -1 6 -9
18 -18 28 -42 41 -18 42 95 4 61 -21 148 -50 192 -64 44 -14 85 -30 90 -34 6
-4 44 -18 85 -30 41 -12 80 -26 85 -30 17 -12 228 -79 255 -81 14 -1 767 -3
1673 -5 1585 -4 1647 -4 1638 14 -5 10 -21 24 -36 32 -14 7 -24 19 -21 26 3 7
0 15 -7 17 -9 3 -8 9 3 23 14 19 14 19 -8 0 -27 -23 -38 -16 -22 14 13 25 4
42 -11 20 -7 -11 -8 -9 -7 10 3 23 -1 26 -42 31 -25 3 -35 7 -22 7 33 3 21 15
-45 48 -32 15 -63 34 -69 42 -7 10 -18 13 -30 8 -13 -5 -15 -9 -6 -15 6 -4 -6
-7 -28 -6 -21 0 -42 4 -46 8 -11 11 -36 8 -29 -3 10 -16 -12 -12 -29 6 -9 8
-16 12 -16 7 0 -14 14 -30 30 -35 26 -8 -21 -26 -75 -28 -78 -3 -77 -4 -73 38
3 34 5 37 38 40 29 3 38 9 53 41 9 21 17 40 17 43 0 12 -59 26 -81 21 -14 -4
-20 -2 -16 5 4 5 2 12 -5 14 -19 7 -109 -17 -108 -27 1 -6 -9 -13 -22 -17 -37
-10 -88 -9 -88 2 0 6 -7 10 -15 10 -9 0 -12 -6 -9 -17 5 -16 4 -16 -8 -2 -7 9
-26 19 -43 23 -29 7 -29 8 -11 22 23 17 21 17 -21 5 -20 -6 -33 -6 -35 0 -4
11 -199 16 -215 6 -6 -4 -27 -8 -47 -9 -21 -2 -36 -8 -36 -15 0 -7 -4 -13 -10
-13 -5 0 -10 5 -10 10 0 6 -7 10 -15 10 -8 0 -15 8 -15 18 0 28 -21 42 -62 42
-33 0 -38 4 -44 28 -4 15 -17 34 -28 42 -20 14 -20 14 4 20 34 8 40 40 7 40
-24 0 -59 31 -70 62 -7 20 -57 25 -57 7 0 -17 -43 -48 -66 -49 -20 0 -34 -17
-34 -40 0 -11 50 2 78 20 12 8 22 20 22 27 0 24 40 14 50 -12 5 -14 14 -25 19
-25 5 0 12 -7 15 -16 7 -18 -8 -11 -40 18 -24 21 -19 24 -89 -53 -46 -51 -37
-50 -282 -30 -7 1 -11 16 -10 40 0 22 4 38 8 35 4 -2 1 9 -7 26 -9 17 -19 28
-23 26 -4 -3 -20 5 -35 17 l-28 23 16 55 c18 60 10 109 -17 109 -11 0 -43 -83
-38 -103 0 -4 -7 -11 -16 -14 -10 -4 -30 -19 -45 -35 -17 -19 -36 -28 -57 -28
-17 0 -34 -7 -39 -16 -8 -15 -12 -15 -38 -1 l-29 15 25 12 c36 16 61 66 67
130 4 43 2 59 -10 69 -20 16 -37 7 -37 -20 0 -10 -4 -19 -10 -19 -5 0 -10 -10
-10 -22 0 -19 -2 -20 -11 -8 -8 11 -9 7 -4 -17 4 -21 3 -33 -4 -33 -6 0 -11
-12 -11 -27 0 -42 -10 -50 -68 -55 -42 -4 -58 -1 -75 13 -22 19 -19 27 18 43
22 10 -23 26 -60 21 -110 -14 -210 -14 -267 0 -34 8 -66 11 -71 8 -6 -4 -8 1
-4 10 4 11 1 17 -9 17 -8 0 -13 -4 -10 -9 4 -5 -18 0 -46 11 -29 11 -66 23
-83 28 -123 34 -155 59 -101 80 28 10 136 140 136 163 0 9 -9 21 -21 28 -17 9
-23 7 -36 -10 -8 -12 -19 -19 -24 -15 -15 9 -86 -75 -93 -109 -5 -26 -9 -28
-36 -22 -24 5 -34 2 -48 -14 -17 -20 -18 -20 -147 33 -71 29 -152 65 -180 80
-27 15 -79 44 -115 63 -190 105 -252 144 -246 159 3 8 -1 14 -10 14 -9 0 -14
7 -12 17 2 13 -7 20 -39 27 -24 5 -43 13 -43 18 0 5 -5 6 -11 2 -6 -3 -21 -2
-32 4 -40 19 -62 25 -79 23 -11 -1 -18 4 -18 13 0 19 -16 21 -23 4 -3 -10 -9
-10 -26 0 -11 6 -23 12 -26 12 -3 0 -5 -207 -5 -459z m638 79 c12 -16 22 -33
22 -37 0 -4 -5 0 -11 10 -14 25 -26 21 -60 -18 -17 -19 -35 -35 -39 -35 -4 0
-10 14 -12 30 -4 25 -1 31 19 36 13 4 28 15 34 25 13 26 22 24 47 -11z m-469
-46 c17 -4 31 -11 31 -16 0 -14 -93 -5 -98 10 -4 13 18 15 67 6z m561 -46 c0
-24 -40 2 -53 35 -5 15 -2 14 23 -5 17 -12 30 -25 30 -30z m-400 -18 c8 -5 11
-12 8 -16 -4 -3 -14 1 -23 10 -18 17 -9 21 15 6z m729 -22 c10 -25 40 -54 84
-81 24 -16 39 -57 20 -57 -5 0 -33 27 -63 61 l-56 61 -34 -51 c-19 -28 -38
-51 -41 -51 -10 0 -29 49 -29 75 0 20 5 25 25 25 14 0 33 9 42 20 23 26 41 25
52 -2z m-929 -149 c0 -6 6 -9 14 -6 10 4 15 -10 20 -55 7 -67 6 -71 -16 -63
-14 6 -50 120 -40 130 9 9 22 6 22 -6z m2010 -51 c0 -17 61 -68 82 -68 21 0
33 -19 21 -31 -6 -6 -15 -4 -23 6 -7 8 -17 15 -22 15 -5 0 -24 11 -42 25 -18
14 -37 25 -42 25 -5 0 -29 -27 -54 -60 -49 -65 -60 -71 -60 -37 0 12 -3 32 -6
45 -5 16 -2 22 9 22 24 0 87 40 87 56 0 8 10 14 25 14 14 0 25 -5 25 -12z
m-659 -114 c28 -14 54 -34 56 -45 7 -25 19 -24 26 1 4 16 14 20 49 20 67 0
118 -17 118 -40 0 -17 7 -20 45 -20 25 0 45 -4 45 -10 0 -12 -1 -12 -155 1
-175 15 -285 56 -285 106 0 21 46 15 101 -13z m-536 -124 c8 0 13 -12 12 -32
0 -18 3 -50 7 -70 6 -34 5 -38 -13 -38 -29 0 -31 5 -46 104 -6 43 -5 48 10 42
9 -3 23 -6 30 -6z m2112 -56 c-3 -3 -12 -4 -19 -1 -8 3 -5 6 6 6 11 1 17 -2
13 -5z m-47 -14 c0 -5 -4 -10 -10 -10 -5 0 -10 5 -10 10 0 6 5 10 10 10 6 0
10 -4 10 -10z m176 2 c5 -5 28 -14 52 -21 23 -6 42 -16 42 -22 0 -12 -48 -1
-75 17 -11 8 -27 14 -37 14 -10 0 -18 5 -18 10 0 12 22 13 36 2z m-1386 -113
c0 -6 9 -9 19 -6 17 4 19 -2 20 -64 1 -62 -1 -69 -18 -69 -27 0 -30 7 -37 84
-4 45 -3 66 5 66 6 0 11 -5 11 -11z m1953 -6 c-7 -2 -19 -2 -25 0 -7 3 -2 5
12 5 14 0 19 -2 13 -5z m65 0 c-10 -2 -26 -2 -35 0 -10 3 -2 5 17 5 19 0 27
-2 18 -5z m-1022 -61 c19 -3 20 -8 16 -60 -5 -62 -13 -78 -35 -69 -16 6 -27
105 -18 160 l5 32 6 -30 c3 -20 12 -31 26 -33z"/>
<path d="M3431 1376 c-7 -8 -28 -22 -47 -31 -33 -16 -37 -16 -55 1 -17 15 -24
16 -74 4 -30 -7 -55 -14 -55 -15 0 -4 29 -77 40 -100 5 -11 32 -78 61 -150 28
-71 55 -133 58 -137 5 -6 309 36 317 45 2 1 -35 79 -81 172 -47 94 -85 175
-85 181 0 16 -34 44 -52 44 -9 0 -21 -6 -27 -14z m-4 -48 c-3 -8 -6 -5 -6 6
-1 11 2 17 5 13 3 -3 4 -12 1 -19z m-22 -8 c8 -13 -5 -13 -25 0 -13 8 -13 10
2 10 9 0 20 -4 23 -10z m32 -56 c7 -19 -7 -46 -27 -52 -9 -3 -11 1 -7 11 3 9
1 17 -4 19 -15 5 1 38 17 38 8 0 17 -7 21 -16z m100 -158 c8 -8 -13 -46 -28
-51 -28 -9 -36 0 -31 35 4 28 7 31 31 25 14 -4 27 -8 28 -9z"/>
<path d="M5200 1356 c0 -14 -10 -30 -24 -39 -21 -14 -26 -14 -36 -2 -17 20
-29 19 -24 -2 5 -20 -10 -41 -46 -66 -22 -15 -22 -17 -5 -17 28 0 175 102 175
121 0 9 -7 20 -16 23 -23 9 -24 8 -24 -18z"/>
<path d="M5184 1265 c-10 -8 -14 -15 -8 -15 6 0 17 7 24 15 16 19 9 19 -16 0z"/>
<path d="M4980 1206 c0 -8 -12 -24 -27 -35 l-28 -21 38 17 c36 16 47 36 27 48
-5 3 -10 0 -10 -9z"/>
<path d="M5355 1190 c3 -5 8 -10 11 -10 2 0 4 5 4 10 0 6 -5 10 -11 10 -5 0
-7 -4 -4 -10z"/>
<path d="M5292 1165 c-10 -8 -22 -11 -26 -7 -4 3 -4 -1 0 -11 5 -13 2 -16 -12
-11 -18 5 -18 5 0 -10 11 -9 17 -19 13 -22 -4 -4 -13 -1 -21 5 -11 10 -19 10
-33 1 -15 -10 -15 -11 -1 -6 9 2 22 -2 29 -10 10 -12 9 -13 -6 -8 -13 5 -16 4
-11 -4 5 -8 2 -10 -8 -6 -9 3 -16 2 -17 -2 0 -5 -3 -31 -5 -59 -5 -51 -20 -80
-28 -54 -12 39 -15 41 -13 10 1 -26 -4 -37 -23 -50 -14 -9 -21 -11 -16 -3 4 7
2 12 -4 12 -7 0 -10 6 -7 13 16 42 -67 68 -101 32 -16 -17 -15 -17 20 -12 21
3 40 2 42 -2 3 -4 -6 -8 -18 -9 -13 -1 -35 -8 -49 -15 -24 -13 -25 -15 -12
-34 8 -11 13 -22 11 -24 -3 -2 13 -4 33 -4 21 -1 38 4 38 10 0 6 -16 10 -36 8
l-36 -2 33 7 c18 4 33 12 32 17 0 6 5 10 10 9 27 -3 31 -5 25 -14 -3 -5 -1
-10 4 -10 6 0 11 -7 11 -15 0 -20 56 -29 236 -40 l54 -3 0 166 0 167 -44 2
c-24 1 -53 -5 -64 -12z m-52 -199 c-9 -46 -15 -56 -32 -56 -19 0 -20 4 -13 48
5 26 9 58 10 72 1 14 3 26 4 28 0 1 10 -6 22 -17 19 -18 20 -23 9 -75z"/>
<path d="M5107 1073 c-4 -3 -7 -11 -7 -17 0 -6 5 -5 12 2 6 6 9 14 7 17 -3 3
-9 2 -12 -2z"/>
<path d="M5150 1040 c0 -19 3 -21 12 -12 9 9 9 15 0 24 -9 9 -12 7 -12 -12z"/>
<path d="M5090 1030 c0 -12 28 -25 36 -17 3 3 -4 10 -15 17 -15 7 -21 7 -21 0z"/>
<path d="M1360 1012 c0 -5 -18 -32 -40 -60 -22 -27 -40 -55 -40 -61 0 -7 -7
-14 -15 -17 -20 -8 -19 -24 1 -24 15 0 42 25 97 88 33 39 40 75 15 80 -10 2
-18 -1 -18 -6z"/>
<path d="M1504 945 c-6 -25 -24 -35 -24 -13 0 6 -11 1 -25 -12 -14 -13 -25
-29 -25 -36 0 -8 -8 -29 -17 -49 -13 -27 -14 -38 -5 -47 9 -9 25 1 67 45 56
58 80 100 71 124 -9 22 -35 15 -42 -12z"/>
<path d="M4930 955 c0 -9 6 -12 15 -9 8 4 15 10 15 15 0 5 -7 9 -15 9 -8 0
-15 -7 -15 -15z"/>
<path d="M5120 955 c0 -8 5 -15 10 -15 6 0 10 7 10 15 0 8 -4 15 -10 15 -5 0
-10 -7 -10 -15z"/>
<path d="M4940 920 c0 -5 5 -10 10 -10 6 0 10 5 10 10 0 6 -4 10 -10 10 -5 0
-10 -4 -10 -10z"/>
<path d="M5080 874 c0 -11 -6 -15 -20 -11 -11 3 -20 2 -20 -1 0 -11 -59 -34
-70 -27 -6 4 -7 -1 -3 -11 5 -14 3 -15 -15 -5 -29 15 -37 14 -22 -4 15 -18 11
-19 -26 -4 -28 10 -28 10 -9 -10 16 -19 16 -21 2 -21 -10 0 -17 -4 -17 -9 0
-5 10 -6 23 -2 38 11 107 51 107 62 0 6 4 8 9 5 12 -8 68 21 75 39 3 8 1 15
-4 15 -6 0 -10 -7 -10 -16z"/>
<path d="M4950 865 c7 -9 15 -13 17 -11 7 7 -7 26 -19 26 -6 0 -6 -6 2 -15z"/>
<path d="M4910 850 c0 -5 7 -10 16 -10 8 0 12 5 9 10 -3 6 -10 10 -16 10 -5 0
-9 -4 -9 -10z"/>
<path d="M2450 832 c0 -10 -4 -22 -10 -28 -5 -5 -10 -43 -12 -84 l-3 -75 -35
-6 -35 -6 38 -2 c44 -1 92 20 107 48 15 29 12 104 -6 139 -17 35 -44 43 -44
14z"/>
<path d="M5199 807 c32 -35 19 -47 -20 -18 -23 17 -33 20 -44 11 -9 -7 -15 -8
-20 0 -20 33 -144 -18 -233 -96 -38 -33 -50 -50 -43 -57 16 -16 13 -27 -4 -21
-8 4 -22 3 -31 0 -13 -5 -14 -9 -4 -21 6 -8 8 -19 4 -26 -5 -8 -9 -7 -16 5
-11 20 -28 21 -28 1 0 -8 -7 -15 -15 -15 -8 0 -15 4 -15 9 0 5 -12 11 -26 14
-28 5 -46 -19 -24 -33 16 -10 8 -46 -9 -42 -8 2 -11 -3 -8 -12 3 -8 -1 -17 -9
-20 -8 -3 -14 -17 -14 -32 0 -17 -6 -28 -20 -31 -11 -3 -20 -12 -20 -19 0 -20
-18 -17 -23 4 -3 10 -5 6 -6 -11 0 -16 4 -37 9 -47 9 -17 4 -23 -30 -45 -39
-25 -47 -44 -34 -79 3 -9 10 -13 15 -10 5 3 7 9 4 14 -8 13 52 33 84 28 17 -2
28 -1 26 3 -3 4 2 9 10 13 8 3 15 1 15 -4 0 -14 28 -12 32 2 3 9 6 9 11 1 4
-7 1 -18 -6 -25 -20 -18 -9 -50 14 -43 11 4 19 2 19 -5 0 -6 -4 -9 -9 -6 -5 3
-12 -1 -15 -10 -5 -13 -1 -15 19 -12 27 6 50 -13 42 -34 -2 -7 0 -22 6 -33 5
-11 6 -17 2 -12 -8 7 -35 -54 -35 -80 0 -8 13 -13 34 -13 40 0 52 26 28 62
-15 21 -15 22 0 10 21 -17 27 -6 35 58 5 46 3 54 -22 80 -15 16 -32 27 -37 24
-4 -3 -8 2 -8 11 0 8 -5 24 -12 35 -27 43 6 31 60 -23 56 -56 58 -56 147 -71
79 -12 93 -12 113 1 13 8 26 12 29 9 6 -6 -36 -45 -48 -46 -4 0 -10 -7 -13
-16 -3 -8 -2 -12 4 -9 6 4 10 -5 10 -20 0 -18 -6 -29 -20 -32 -11 -3 -20 -6
-20 -7 0 -1 -4 -16 -9 -34 -9 -31 -9 -32 24 -32 20 0 32 5 32 12 -2 21 22 101
39 131 22 39 15 67 -51 201 l-55 113 -45 7 c-60 8 -80 19 -99 58 -20 38 -14
45 21 28 16 -7 42 -15 60 -16 67 -6 90 -28 143 -138 50 -103 66 -128 117 -179
22 -21 25 -29 15 -36 -11 -7 -11 -12 -2 -28 10 -15 9 -28 -4 -66 -30 -88 -30
-87 84 -87 l100 0 0 358 0 358 -68 23 c-38 12 -79 32 -93 44 -46 41 -66 54
-40 24z m-459 -378 c0 -21 -17 -28 -49 -20 l-25 7 28 21 c16 13 25 27 21 35
-4 7 1 4 9 -6 9 -11 16 -27 16 -37z m-60 -39 c0 -5 -7 -10 -15 -10 -8 0 -15 5
-15 10 0 6 7 10 15 10 8 0 15 -4 15 -10z m76 -21 c8 -14 -11 -33 -25 -25 -11
7 -4 36 9 36 5 0 12 -5 16 -11z m539 -159 c3 -5 1 -10 -4 -10 -6 0 -11 5 -11
10 0 6 2 10 4 10 3 0 8 -4 11 -10z"/>
<path d="M4791 764 c0 -11 3 -14 6 -6 3 7 2 16 -1 19 -3 4 -6 -2 -5 -13z"/>
<path d="M4820 740 c-8 -5 -10 -10 -5 -10 6 0 17 5 25 10 8 5 11 10 5 10 -5 0
-17 -5 -25 -10z"/>
<path d="M4640 660 c0 -5 5 -10 11 -10 5 0 7 5 4 10 -3 6 -8 10 -11 10 -2 0
-4 -4 -4 -10z"/>
<path d="M4498 563 c0 -5 -2 -12 -3 -18 -2 -5 -3 -16 -4 -22 0 -7 -8 -13 -16
-13 -8 0 -16 -6 -16 -12 -1 -7 -2 -20 -3 -28 0 -8 6 -18 14 -22 12 -5 12 -7
-2 -7 -10 -1 -18 -5 -18 -11 0 -13 3 -13 35 2 19 8 25 17 21 31 -4 18 -3 18
14 2 12 -11 20 -13 25 -6 3 6 2 11 -4 11 -6 0 -8 6 -5 14 3 8 1 17 -5 21 -6 3
-11 19 -11 36 0 25 -17 43 -22 22z"/>
<path d="M4630 550 c-13 -8 -12 -10 3 -10 9 0 17 5 17 10 0 12 -1 12 -20 0z"/>
<path d="M2270 539 c0 -5 9 -9 20 -9 11 0 20 2 20 4 0 2 -9 6 -20 9 -11 3 -20
1 -20 -4z"/>
<path d="M3218 443 c7 -3 16 -2 19 1 4 3 -2 6 -13 5 -11 0 -14 -3 -6 -6z"/>
<path d="M4421 366 c-12 -25 -19 -51 -15 -61 6 -14 3 -16 -17 -11 -13 3 -18 3
-11 0 14 -7 17 -34 3 -34 -21 0 -41 13 -41 27 0 10 -6 12 -19 8 -29 -9 -35 12
-11 37 21 23 22 39 2 46 -16 5 -62 -94 -62 -134 0 -39 19 -102 55 -181 l28
-63 117 0 117 0 23 30 c13 17 40 35 61 41 32 10 36 14 27 29 -13 20 -49 15
-41 -6 3 -8 1 -14 -5 -14 -6 0 -17 -3 -26 -6 -12 -4 -16 0 -16 15 0 12 4 21 9
21 5 0 11 12 14 26 3 18 0 27 -12 31 -30 9 -46 21 -43 34 3 10 0 10 -12 0 -8
-7 -20 -10 -26 -6 -17 11 -11 -17 8 -31 14 -11 15 -15 3 -23 -18 -12 -41 -3
-41 16 0 8 -7 27 -15 43 -12 24 -13 34 -3 49 9 15 8 22 -5 36 -19 18 -21 31
-9 39 10 6 3 74 -8 81 -5 3 -18 -15 -29 -39z"/>
<path d="M4515 361 c-7 -12 12 -24 25 -16 11 7 4 25 -10 25 -5 0 -11 -4 -15
-9z"/>
<path d="M3878 353 c7 -3 16 -2 19 1 4 3 -2 6 -13 5 -11 0 -14 -3 -6 -6z"/>
<path d="M3647 333 c-4 -3 -7 -13 -7 -22 1 -14 2 -14 11 1 6 11 16 15 26 11
11 -4 14 -3 9 5 -8 13 -29 16 -39 5z"/>
<path d="M4333 315 c2 -5 10 -10 17 -10 7 0 15 5 17 10 2 6 -6 11 -17 11 -11
0 -19 -5 -17 -11z"/>
<path d="M3930 270 c0 -5 5 -10 11 -10 5 0 7 5 4 10 -3 6 -8 10 -11 10 -2 0
-4 -4 -4 -10z"/>
<path d="M4630 212 c0 -12 23 -32 37 -32 11 0 11 4 1 20 -13 20 -38 28 -38 12z"/>
<path d="M4620 180 c0 -5 5 -10 11 -10 5 0 7 5 4 10 -3 6 -8 10 -11 10 -2 0
-4 -4 -4 -10z"/>
<path d="M4667 163 c-12 -11 -8 -23 8 -23 8 0 15 7 15 15 0 16 -12 20 -23 8z"/>
<path d="M4904 155 c3 -8 1 -15 -4 -15 -9 0 -23 -41 -36 -108 l-6 -32 60 0 61
0 16 52 c17 58 20 102 6 80 -10 -16 -46 -12 -46 5 0 6 -3 15 -7 19 -5 4 -8 2
-8 -4 0 -7 -4 -12 -10 -12 -5 0 -10 7 -10 15 0 8 -5 15 -11 15 -6 0 -9 -7 -5
-15z"/>
<path d="M310 118 c5 -18 8 -41 7 -51 -1 -12 9 -23 31 -32 31 -13 32 -13 32 8
0 47 -20 95 -43 101 -35 9 -36 8 -27 -26z"/>
<path d="M426 102 c-2 -4 -1 -14 4 -22 4 -7 6 -19 3 -26 -2 -6 0 -15 6 -18 6
-4 8 -13 4 -21 -4 -12 3 -15 30 -15 l35 0 -10 38 c-12 46 -58 87 -72 64z"/>
<path d="M4713 93 c-7 -2 -13 -11 -13 -19 0 -8 -6 -14 -14 -14 -8 0 -17 -4
-20 -9 -4 -5 4 -7 16 -3 19 5 20 3 8 -10 -14 -14 -54 -13 -45 1 2 4 -1 8 -8 8
-7 0 -12 -11 -12 -24 0 -20 5 -23 43 -23 40 0 42 1 42 31 0 17 5 39 10 50 6
10 9 19 8 18 -2 0 -9 -3 -15 -6z"/>
<path d="M550 46 c0 -31 13 -46 40 -46 23 0 27 3 23 24 -3 14 -14 27 -26 30
-32 8 -37 7 -37 -8z"/>
<path d="M688 3 c7 -3 16 -2 19 1 4 3 -2 6 -13 5 -11 0 -14 -3 -6 -6z"/>
</g>
</svg>
